<?xml version="1.0" encoding="iso-8859-1"?>
<!-- Generator: Adobe Illustrator 21.1.0, SVG Export Plug-In . SVG Version: 6.00 Build 0)  -->
<svg version="1.1" xmlns="http://www.w3.org/2000/svg" xmlns:xlink="http://www.w3.org/1999/xlink" x="0px" y="0px"
	 viewBox="0 0 770 260" style="enable-background:new 0 0 770 260;" xml:space="preserve">
<g id="Exp_1" style="display:none;">
	<g style="display:inline;">
		<g>
			<g>
				<defs>
					<rect id="SVGID_1_" x="8.308" y="6.481" width="123.909" height="208.18"/>
				</defs>
				<clipPath id="SVGID_2_">
					<use xlink:href="#SVGID_1_"  style="overflow:visible;"/>
				</clipPath>
				<path style="clip-path:url(#SVGID_2_);" d="M116.416,6.481h-93.96c-7.807,0-14.148,6.345-14.148,14.152v168.675
					c0,7.807,6.341,14.148,14.148,14.148h1.108h8.327h75.594h8.327h0.604c7.807,0,14.148-6.341,14.148-14.148V20.633
					C130.564,12.827,124.223,6.481,116.416,6.481L116.416,6.481z M22.456,14.808h93.96c3.202,0,5.821,2.619,5.821,5.825v58.794
					H16.635V20.633C16.635,17.427,19.254,14.808,22.456,14.808L22.456,14.808z M116.416,195.13h-93.96
					c-3.202,0-5.821-2.619-5.821-5.821V87.755h105.601v101.538C122.237,192.511,119.618,195.13,116.416,195.13L116.416,195.13z
					 M116.416,195.13"/>
			</g>
			<path d="M27.648,103.106v22.608c0,5.35,8.327,5.367,8.327,0v-22.608C35.975,97.756,27.648,97.739,27.648,103.106L27.648,103.106z
				 M27.648,103.106"/>
			<path d="M35.975,66.27V43.662c0-5.35-8.327-5.367-8.327,0V66.27C27.648,71.621,35.975,71.637,35.975,66.27L35.975,66.27z
				 M35.975,66.27"/>
		</g>
		<g>
			<path d="M199.736,191.327V42.831c0-2.561,1.28-3.84,3.841-3.84h75.955c2.417,0,3.627,1.21,3.627,3.627
				c0,2.704-1.21,4.054-3.627,4.054h-72.114v66.354h34.137c2.417,0,3.627,1.354,3.627,4.054c0,2.42-1.21,3.627-3.627,3.627h-34.137
				v70.621c0,2.42-1.28,3.627-3.841,3.627S199.736,193.747,199.736,191.327z"/>
			<path d="M274.412,191.113V97.877c0-2.417,1.206-3.627,3.627-3.627c2.561,0,3.84,1.21,3.84,3.627v11.308
				c6.401-10.808,16.285-16.215,29.657-16.215h7.894c0.994,0,1.847,0.394,2.561,1.173c0.71,0.784,1.066,1.674,1.066,2.667
				c0,0.997-0.356,1.85-1.066,2.561c-0.714,0.713-1.566,1.066-2.561,1.066h-7.894c-7.968,0-14.902,2.847-20.803,8.535
				c-5.904,5.69-8.854,13.157-8.854,22.402v59.739c0,0.997-0.393,1.888-1.173,2.667c-0.783,0.784-1.674,1.174-2.667,1.174
				c-0.997,0-1.851-0.39-2.561-1.174C274.766,193.001,274.412,192.11,274.412,191.113z"/>
			<path d="M338.951,58.939c-1.354-1.35-2.027-2.95-2.027-4.801c0-1.847,0.674-3.414,2.027-4.693c1.35-1.28,2.95-1.92,4.801-1.92
				c1.847,0,3.413,0.64,4.693,1.92c1.28,1.28,1.92,2.847,1.92,4.693c0,1.851-0.64,3.451-1.92,4.801
				c-1.28,1.354-2.847,2.027-4.693,2.027C341.902,60.966,340.301,60.293,338.951,58.939z M340.124,191.113V97.877
				c0-0.994,0.354-1.847,1.067-2.56c0.71-0.71,1.563-1.067,2.561-1.067c2.56,0,3.84,1.21,3.84,3.627v93.236
				c0,0.997-0.394,1.888-1.174,2.667c-0.783,0.784-1.673,1.174-2.666,1.174c-0.997,0-1.851-0.39-2.561-1.174
				C340.478,193.001,340.124,192.11,340.124,191.113z"/>
			<path d="M372.766,157.403v-26.029c0-10.524,3.767-19.556,11.308-27.096c7.538-7.538,16.568-11.308,27.097-11.308
				c12.941,0,22.472,5.407,28.59,16.215V34.724c0-2.417,1.279-3.627,3.84-3.627c2.417,0,3.627,1.21,3.627,3.627v156.39
				c0,0.997-0.356,1.888-1.066,2.667c-0.714,0.784-1.567,1.174-2.561,1.174c-0.997,0-1.887-0.39-2.667-1.174
				c-0.783-0.779-1.173-1.67-1.173-2.667V180.02c-2.421,4.554-6.294,8.394-11.628,11.521c-5.334,3.131-11.132,4.694-17.389,4.694
				c-10.102,0-18.956-3.91-26.563-11.734C376.57,176.679,372.766,167.645,372.766,157.403z M380.234,157.403
				c0,8.107,3.02,15.361,9.067,21.763c6.044,6.4,13.048,9.601,21.016,9.601c7.681,0,14.508-2.807,20.482-8.428
				c5.974-5.617,8.961-10.631,8.961-15.041v-33.924c0-9.245-2.954-16.712-8.854-22.402c-5.904-5.688-12.695-8.535-20.376-8.535
				c-8.107,0-15.185,3.167-21.229,9.495c-6.048,6.331-9.067,13.479-9.067,21.442V157.403z"/>
			<path d="M468.773,217.997c0-11.238,6.471-19.133,19.416-23.683c-8.678-2.417-13.015-7.468-13.015-15.148
				c0-6.541,3.483-11.448,10.454-14.722c-7.397-6.541-11.095-15.502-11.095-26.883v-9.602c0-10.381,3.164-18.809,9.494-25.283
				c6.328-6.47,14.615-9.708,24.856-9.708c10.381,0,18.846,3.414,25.39,10.241c1.99-3.697,4.48-6.791,7.467-9.281
				c2.987-2.487,5.831-3.733,8.534-3.733c2.987,0,4.48,1.423,4.48,4.267c0,1.28-0.393,2.277-1.173,2.987
				c-0.783,0.713-1.674,1.067-2.667,1.067c-5.121,0-9.388,3.273-12.802,9.814c3.554,4.98,5.334,11.521,5.334,19.628v9.602
				c0,10.241-3.237,18.705-9.708,25.389c-6.474,6.688-14.828,10.028-25.069,10.028c-6.544,0-12.374-1.493-17.495-4.48
				c-5.69,2.561-8.534,5.974-8.534,10.241c0,3.19,1.677,5.65,5.031,7.384c3.354,1.733,7.54,2.884,12.558,3.454
				c5.014,0.573,10.418,1.187,16.208,1.843c5.791,0.66,11.172,1.634,16.146,2.924s9.128,3.837,12.468,7.638
				c3.341,3.801,5.011,8.711,5.011,14.735c0,9.101-3.557,16.178-10.668,21.229c-7.114,5.047-16.855,7.574-29.23,7.574
				c-12.519,0-22.546-2.49-30.083-7.468C472.54,233.071,468.773,226.388,468.773,217.997z M476.241,217.356
				c0,6.4,3.021,11.555,9.067,15.469c6.044,3.91,14.328,5.867,24.856,5.867c10.381,0,18.382-1.954,24.002-5.857
				c5.618-3.91,8.428-9.201,8.428-15.875c0-3.268-0.82-6.074-2.453-8.414c-1.637-2.348-3.594-4.157-5.871-5.435
				c-2.276-1.28-5.157-2.344-8.644-3.193c-3.487-0.856-6.614-1.42-9.388-1.697c-2.774-0.283-6.008-0.573-9.705-0.87
				c-3.697-0.303-6.327-0.603-7.891-0.903C483.708,200.715,476.241,207.683,476.241,217.356z M482.001,137.348
				c0,8.251,2.417,15.009,7.254,20.27c4.834,5.264,11.448,7.894,19.842,7.894c8.108,0,14.615-2.63,19.522-7.894
				c4.907-5.261,7.36-11.948,7.36-20.056v-9.602c0-7.964-2.42-14.542-7.254-19.735c-4.837-5.19-11.451-7.788-19.842-7.788
				c-8.251,0-14.795,2.597-19.629,7.788c-4.837,5.194-7.254,11.771-7.254,19.735V137.348z"/>
			<path d="M567.983,157.403v-26.67c0-10.241,3.734-19.095,11.201-26.562c7.468-7.467,16.393-11.201,26.776-11.201
				c10.241,0,19.096,3.664,26.563,10.988c7.467,7.328,11.201,16.465,11.201,27.417c0,3.7-0.427,6.688-1.28,8.961
				c-0.854,2.276-2.277,3.914-4.268,4.907c-1.993,0.997-3.807,1.6-5.44,1.813c-1.637,0.213-3.877,0.32-6.721,0.32h-50.565v10.027
				c0,9.531,3.341,17.142,10.027,22.829c6.685,5.69,15.362,8.534,26.03,8.534c5.26,0,9.671-0.746,13.228-2.24
				c3.554-1.493,6.221-2.95,8.001-4.374c1.777-1.42,3.094-2.133,3.947-2.133c0.993,0,1.884,0.427,2.667,1.279
				c0.78,0.854,1.173,1.707,1.173,2.561c0,1.424-1.14,3.094-3.413,5.014c-2.277,1.921-5.761,3.628-10.455,5.121
				c-4.693,1.493-9.888,2.24-15.574,2.24c-12.662,0-23.01-3.591-31.044-10.774C572,178.279,567.983,168.925,567.983,157.403z
				 M575.451,139.908h48.005c5.261,0,8.711-0.497,10.348-1.493c1.634-0.994,2.454-3.127,2.454-6.401
				c0-8.107-2.847-15.395-8.534-21.869c-5.69-6.471-12.945-9.708-21.763-9.708c-8.534,0-15.755,3.024-21.655,9.068
				c-5.904,6.047-8.854,13.122-8.854,21.229V139.908z"/>
		</g>
	</g>
</g>
<g id="Exp_1_copy">
	<g>
		<path style="fill:#FFFFFF;" d="M276.646,133.99h-72.841v73.056H190.61V50.85h96.764v11.157h-83.569v60.826h72.841V133.99z"/>
		<path style="fill:#FFFFFF;" d="M362.039,101.914c-2.719-0.5-5.615-0.751-8.689-0.751c-8.011,0-14.788,2.236-20.329,6.705
			c-5.543,4.471-9.494,10.961-11.854,19.471v79.707h-12.766V90.972h12.551l0.215,18.452c6.793-13.731,17.701-20.597,32.719-20.597
			c3.575,0,6.4,0.466,8.476,1.395L362.039,101.914z"/>
		<path style="fill:#FFFFFF;" d="M381.564,57.447c0-2.417,0.786-4.46,2.36-6.13c1.572-1.669,3.718-2.506,6.437-2.506
			c2.717,0,4.881,0.836,6.49,2.506s2.414,3.713,2.414,6.13s-0.805,4.442-2.414,6.076c-1.609,1.636-3.773,2.453-6.49,2.453
			c-2.719,0-4.864-0.816-6.437-2.453C382.35,61.889,381.564,59.864,381.564,57.447z M396.69,207.046h-12.873V90.972h12.873V207.046z
			"/>
		<path style="fill:#FFFFFF;" d="M426.406,147.936c0-18.022,4.022-32.379,12.068-43.071c8.046-10.691,18.97-16.038,32.773-16.038
			c15.663,0,27.605,6.187,35.831,18.559V42.268h12.766v164.778h-12.015l-0.536-15.448c-8.226,11.73-20.312,17.594-36.26,17.594
			c-13.375,0-24.156-5.381-32.345-16.146c-8.189-10.763-12.283-25.299-12.283-43.608V147.936z M439.386,150.188
			c0,14.805,2.967,26.481,8.904,35.026c5.936,8.547,14.303,12.819,25.103,12.819c15.806,0,27.034-6.973,33.686-20.919v-54.497
			c-6.651-15.089-17.809-22.636-33.471-22.636c-10.8,0-19.203,4.237-25.21,12.712C442.39,121.17,439.386,133.668,439.386,150.188z"
			/>
		<path style="fill:#FFFFFF;" d="M548.488,147.936c0-18.165,4.022-32.558,12.068-43.179s18.97-15.931,32.773-15.931
			c15.806,0,27.82,6.294,36.046,18.881l0.644-16.735h12.015v113.714c0,14.947-4.184,26.783-12.552,35.509
			c-8.367,8.725-19.703,13.088-34.007,13.088c-8.082,0-15.788-1.807-23.118-5.417c-7.332-3.612-13.106-8.422-17.325-14.429
			l7.188-7.725c9.082,11.157,19.882,16.735,32.397,16.735c10.729,0,19.096-3.164,25.104-9.494
			c6.008-6.329,9.118-15.109,9.333-26.336v-14.59c-8.226,11.443-20.205,17.164-35.938,17.164c-13.447,0-24.245-5.364-32.398-16.092
			s-12.229-25.21-12.229-43.447V147.936z M561.468,150.188c0,14.805,2.967,26.481,8.904,35.026
			c5.936,8.547,14.303,12.819,25.103,12.819c15.806,0,26.997-7.08,33.578-21.24v-53.961c-3.004-7.438-7.332-13.104-12.98-17.003
			c-5.65-3.897-12.444-5.847-20.383-5.847c-10.8,0-19.203,4.237-25.21,12.712C564.472,121.17,561.468,133.668,561.468,150.188z"/>
		<path style="fill:#FFFFFF;" d="M720.453,209.191c-9.869,0-18.792-2.431-26.766-7.295c-7.976-4.862-14.179-11.64-18.612-20.329
			c-4.436-8.689-6.651-18.434-6.651-29.233v-4.612c0-11.157,2.162-21.204,6.49-30.145c4.326-8.939,10.352-15.966,18.076-21.08
			c7.724-5.113,16.092-7.67,25.103-7.67c14.089,0,25.264,4.811,33.524,14.429c8.261,9.62,12.391,22.761,12.391,39.425v7.188H681.19
			v2.467c0,13.16,3.771,24.121,11.318,32.881c7.544,8.762,17.038,13.142,28.481,13.142c6.866,0,12.927-1.25,18.184-3.755
			c5.257-2.502,10.03-6.507,14.321-12.015l8.046,6.114C752.1,202.362,738.404,209.191,720.453,209.191z M718.093,99.769
			c-9.654,0-17.791,3.54-24.405,10.62c-6.616,7.081-10.639,16.593-12.068,28.536h69.623v-1.395
			c-0.359-11.157-3.541-20.239-9.548-27.249C735.687,103.273,727.819,99.769,718.093,99.769z"/>
	</g>
	<path style="fill:none;stroke:#FFFFFF;stroke-width:12;stroke-miterlimit:10;" d="M112.823,201.822H24.728
		c-7.202,0-13.095-5.893-13.095-13.095V25.235c0-7.202,5.893-13.095,13.095-13.095h88.095c7.202,0,13.095,5.893,13.095,13.095
		v163.492C125.918,195.929,120.026,201.822,112.823,201.822z"/>
	<line style="fill:none;stroke:#FFFFFF;stroke-width:12;stroke-miterlimit:10;" x1="11.633" y1="84.365" x2="125.918" y2="84.365"/>
	
		<line style="fill:none;stroke:#FFFFFF;stroke-width:12;stroke-linecap:round;stroke-miterlimit:10;" x1="31.812" y1="63.25" x2="31.812" y2="40.683"/>
	
		<line style="fill:none;stroke:#FFFFFF;stroke-width:12;stroke-linecap:round;stroke-miterlimit:10;" x1="31.812" y1="127.375" x2="31.812" y2="104.808"/>
</g>
<g id="Layer_7" style="display:none;">
</g>
<g id="Exp_2" style="display:none;">
	<path style="display:inline;fill:none;stroke:#000000;stroke-width:8;stroke-miterlimit:10;" d="M120.145,202.954H20.38
		c-6.64,0-22.081-33.162-22.081-98.236S13.741,6.481,20.38,6.481h99.764c6.64,0,22.155,34.954,22.155,98.236
		S126.784,202.954,120.145,202.954z"/>
	<path style="display:inline;" d="M27.648,103.106v22.608c0,5.35,8.327,5.367,8.327,0v-22.608
		C35.975,97.756,27.648,97.739,27.648,103.106L27.648,103.106z M27.648,103.106"/>
	<path style="display:inline;" d="M35.975,66.27V43.662c0-5.35-8.327-5.367-8.327,0V66.27C27.648,71.621,35.975,71.637,35.975,66.27
		L35.975,66.27z M35.975,66.27"/>
	
		<line style="display:inline;fill:none;stroke:#000000;stroke-width:8;stroke-miterlimit:10;" x1="-1.283" y1="84.607" x2="141.882" y2="84.607"/>
	<g style="display:inline;">
		<path d="M211.604,199.327V50.831c0-2.561,1.28-3.84,3.84-3.84h75.955c2.417,0,3.627,1.21,3.627,3.627
			c0,2.704-1.21,4.054-3.627,4.054h-72.114v66.354h34.137c2.417,0,3.627,1.354,3.627,4.054c0,2.42-1.21,3.627-3.627,3.627h-34.137
			v70.621c0,2.42-1.28,3.627-3.841,3.627C212.884,202.954,211.604,201.747,211.604,199.327z"/>
		<path d="M286.28,199.113v-93.236c0-2.417,1.207-3.627,3.627-3.627c2.561,0,3.84,1.21,3.84,3.627v11.308
			c6.401-10.808,16.285-16.215,29.657-16.215h7.894c0.994,0,1.847,0.394,2.561,1.173c0.71,0.784,1.066,1.674,1.066,2.667
			c0,0.997-0.356,1.85-1.066,2.561c-0.714,0.713-1.567,1.066-2.561,1.066h-7.894c-7.968,0-14.902,2.847-20.802,8.535
			c-5.904,5.69-8.854,13.157-8.854,22.402v59.739c0,0.997-0.393,1.888-1.173,2.667c-0.783,0.784-1.673,1.174-2.667,1.174
			c-0.997,0-1.85-0.39-2.56-1.174C286.634,201.001,286.28,200.11,286.28,199.113z"/>
		<path d="M350.82,66.939c-1.354-1.35-2.027-2.95-2.027-4.801c0-1.847,0.674-3.414,2.027-4.693c1.35-1.28,2.95-1.92,4.801-1.92
			c1.847,0,3.413,0.64,4.693,1.92c1.28,1.28,1.92,2.847,1.92,4.693c0,1.851-0.64,3.451-1.92,4.801
			c-1.28,1.354-2.847,2.027-4.693,2.027C353.77,68.966,352.169,68.293,350.82,66.939z M351.992,199.113v-93.236
			c0-0.994,0.354-1.847,1.067-2.56c0.71-0.71,1.563-1.067,2.561-1.067c2.56,0,3.84,1.21,3.84,3.627v93.236
			c0,0.997-0.394,1.888-1.174,2.667c-0.783,0.784-1.673,1.174-2.666,1.174c-0.997,0-1.851-0.39-2.561-1.174
			C352.346,201.001,351.992,200.11,351.992,199.113z"/>
		<path d="M384.634,165.403v-26.029c0-10.524,3.767-19.556,11.308-27.096c7.538-7.538,16.568-11.308,27.097-11.308
			c12.941,0,22.472,5.407,28.59,16.215V42.724c0-2.417,1.279-3.627,3.84-3.627c2.417,0,3.627,1.21,3.627,3.627v156.39
			c0,0.997-0.356,1.888-1.066,2.667c-0.714,0.784-1.567,1.174-2.561,1.174c-0.997,0-1.887-0.39-2.667-1.174
			c-0.783-0.779-1.173-1.67-1.173-2.667V188.02c-2.421,4.554-6.294,8.394-11.628,11.521c-5.334,3.131-11.132,4.694-17.389,4.694
			c-10.102,0-18.956-3.91-26.563-11.734C388.438,184.679,384.634,175.645,384.634,165.403z M392.102,165.403
			c0,8.107,3.02,15.361,9.067,21.763c6.044,6.4,13.048,9.601,21.016,9.601c7.681,0,14.508-2.807,20.482-8.428
			c5.974-5.617,8.961-10.631,8.961-15.041v-33.924c0-9.245-2.954-16.712-8.854-22.402c-5.904-5.688-12.695-8.535-20.376-8.535
			c-8.107,0-15.185,3.167-21.229,9.495c-6.048,6.331-9.067,13.479-9.067,21.442V165.403z"/>
		<path d="M480.641,225.997c0-11.238,6.471-19.133,19.416-23.683c-8.678-2.417-13.015-7.468-13.015-15.148
			c0-6.541,3.483-11.448,10.454-14.722c-7.397-6.541-11.095-15.502-11.095-26.883v-9.602c0-10.381,3.164-18.809,9.494-25.283
			c6.328-6.47,14.615-9.708,24.856-9.708c10.381,0,18.846,3.414,25.39,10.241c1.99-3.697,4.48-6.791,7.467-9.281
			c2.987-2.487,5.831-3.733,8.534-3.733c2.987,0,4.48,1.423,4.48,4.267c0,1.28-0.393,2.277-1.173,2.987
			c-0.783,0.713-1.674,1.067-2.667,1.067c-5.121,0-9.388,3.273-12.802,9.814c3.554,4.98,5.334,11.521,5.334,19.628v9.602
			c0,10.241-3.237,18.705-9.708,25.389c-6.474,6.688-14.828,10.028-25.069,10.028c-6.544,0-12.374-1.493-17.495-4.48
			c-5.69,2.561-8.534,5.974-8.534,10.241c0,3.19,1.677,5.65,5.031,7.384c3.354,1.733,7.54,2.884,12.558,3.454
			c5.014,0.573,10.418,1.187,16.208,1.843c5.791,0.66,11.172,1.634,16.146,2.924s9.128,3.837,12.468,7.638
			c3.341,3.801,5.011,8.711,5.011,14.735c0,9.101-3.557,16.178-10.668,21.229c-7.114,5.047-16.855,7.574-29.229,7.574
			c-12.519,0-22.546-2.49-30.083-7.468C484.408,241.071,480.641,234.388,480.641,225.997z M488.109,225.356
			c0,6.4,3.021,11.555,9.067,15.469c6.044,3.91,14.328,5.867,24.856,5.867c10.381,0,18.382-1.954,24.002-5.857
			c5.618-3.91,8.428-9.201,8.428-15.875c0-3.268-0.82-6.074-2.453-8.414c-1.637-2.348-3.594-4.157-5.871-5.435
			c-2.276-1.28-5.157-2.344-8.644-3.193c-3.487-0.856-6.614-1.42-9.388-1.697c-2.774-0.283-6.008-0.573-9.705-0.87
			c-3.697-0.303-6.327-0.603-7.891-0.903C495.576,208.715,488.109,215.683,488.109,225.356z M493.869,145.348
			c0,8.251,2.417,15.009,7.254,20.27c4.834,5.264,11.448,7.894,19.842,7.894c8.108,0,14.615-2.63,19.522-7.894
			c4.907-5.261,7.36-11.948,7.36-20.056v-9.602c0-7.964-2.42-14.542-7.254-19.735c-4.837-5.19-11.451-7.788-19.842-7.788
			c-8.251,0-14.795,2.597-19.629,7.788c-4.837,5.194-7.254,11.771-7.254,19.735V145.348z"/>
		<path d="M579.851,165.403v-26.67c0-10.241,3.734-19.095,11.201-26.562c7.468-7.467,16.393-11.201,26.776-11.201
			c10.241,0,19.096,3.664,26.563,10.988c7.467,7.328,11.201,16.465,11.201,27.417c0,3.7-0.427,6.688-1.28,8.961
			c-0.854,2.276-2.277,3.914-4.268,4.907c-1.993,0.997-3.807,1.6-5.44,1.813c-1.637,0.213-3.877,0.32-6.721,0.32h-50.565v10.027
			c0,9.531,3.341,17.142,10.027,22.829c6.685,5.69,15.362,8.534,26.03,8.534c5.26,0,9.671-0.746,13.228-2.24
			c3.554-1.493,6.221-2.95,8.001-4.374c1.777-1.42,3.094-2.133,3.947-2.133c0.993,0,1.884,0.427,2.667,1.279
			c0.78,0.854,1.173,1.707,1.173,2.561c0,1.424-1.14,3.094-3.413,5.014c-2.277,1.921-5.761,3.628-10.455,5.121
			c-4.693,1.493-9.888,2.24-15.574,2.24c-12.662,0-23.01-3.591-31.044-10.774C583.868,186.279,579.851,176.925,579.851,165.403z
			 M587.319,147.908h48.005c5.261,0,8.711-0.497,10.348-1.493c1.634-0.994,2.454-3.127,2.454-6.401
			c0-8.107-2.847-15.395-8.534-21.869c-5.69-6.471-12.945-9.708-21.763-9.708c-8.534,0-15.755,3.024-21.655,9.068
			c-5.904,6.047-8.854,13.122-8.854,21.229V147.908z"/>
	</g>
</g>
<g id="Exp_3" style="display:none;">
	<g style="display:inline;">
		<g>
			<g>
				<defs>
					<rect id="SVGID_3_" x="8.308" y="6.481" width="123.909" height="208.18"/>
				</defs>
				<clipPath id="SVGID_4_">
					<use xlink:href="#SVGID_3_"  style="overflow:visible;"/>
				</clipPath>
				<path style="clip-path:url(#SVGID_4_);" d="M116.416,6.481h-93.96c-7.807,0-14.148,6.345-14.148,14.152v168.675
					c0,7.807,6.341,14.148,14.148,14.148h1.108h8.327h75.594h8.327h0.604c7.807,0,14.148-6.341,14.148-14.148V20.633
					C130.564,12.827,124.223,6.481,116.416,6.481L116.416,6.481z M22.456,14.808h93.96c3.202,0,5.821,2.619,5.821,5.825v58.794
					H16.635V20.633C16.635,17.427,19.254,14.808,22.456,14.808L22.456,14.808z M116.416,195.13h-93.96
					c-3.202,0-5.821-2.619-5.821-5.821V87.755h105.601v101.538C122.237,192.511,119.618,195.13,116.416,195.13L116.416,195.13z
					 M116.416,195.13"/>
			</g>
			<path d="M27.648,103.106v22.608c0,5.35,8.327,5.367,8.327,0v-22.608C35.975,97.756,27.648,97.739,27.648,103.106L27.648,103.106z
				 M27.648,103.106"/>
			<path d="M35.975,66.27V43.662c0-5.35-8.327-5.367-8.327,0V66.27C27.648,71.621,35.975,71.637,35.975,66.27L35.975,66.27z
				 M35.975,66.27"/>
		</g>
		<g>
			<path d="M199.736,186.493V24.749c0-2.789,1.395-4.183,4.183-4.183h82.731c2.633,0,3.951,1.318,3.951,3.951
				c0,2.945-1.318,4.415-3.951,4.415h-78.548v72.274v8.366v76.921c0,2.636-1.394,3.951-4.183,3.951
				C201.13,190.443,199.736,189.128,199.736,186.493z"/>
			<path d="M281.074,186.26V84.705c0-2.633,1.314-3.951,3.951-3.951c2.789,0,4.183,1.318,4.183,3.951v12.317
				c6.972-11.772,17.738-17.662,32.302-17.662h8.598c1.082,0,2.011,0.429,2.789,1.278c0.773,0.854,1.162,1.823,1.162,2.905
				c0,1.086-0.388,2.015-1.162,2.789c-0.778,0.777-1.707,1.162-2.789,1.162h-8.598c-8.679,0-16.231,3.101-22.658,9.296
				c-6.431,6.198-9.644,14.331-9.644,24.401v65.069c0,1.086-0.428,2.056-1.278,2.905c-0.853,0.854-1.823,1.279-2.905,1.279
				c-1.086,0-2.015-0.424-2.788-1.279C281.459,188.316,281.074,187.346,281.074,186.26z"/>
			<path d="M351.371,42.294c-1.474-1.471-2.208-3.213-2.208-5.229c0-2.011,0.734-3.718,2.208-5.112
				c1.47-1.394,3.213-2.092,5.229-2.092c2.011,0,3.718,0.697,5.112,2.092c1.395,1.394,2.091,3.101,2.091,5.112
				c0,2.016-0.697,3.759-2.091,5.229c-1.395,1.474-3.101,2.208-5.112,2.208C354.585,44.502,352.841,43.768,351.371,42.294z
				 M352.649,186.26V84.705c0-1.082,0.385-2.011,1.163-2.788c0.773-0.774,1.703-1.162,2.789-1.162c2.788,0,4.182,1.318,4.182,3.951
				V186.26c0,1.086-0.429,2.056-1.279,2.905c-0.853,0.854-1.822,1.279-2.904,1.279c-1.086,0-2.016-0.424-2.789-1.279
				C353.034,188.316,352.649,187.346,352.649,186.26z"/>
			<path d="M388.203,149.542v-28.351c0-11.463,4.103-21.3,12.316-29.514c8.211-8.21,18.046-12.317,29.514-12.317
				c14.096,0,24.476,5.89,31.14,17.662V15.918c0-2.633,1.393-3.951,4.182-3.951c2.633,0,3.951,1.318,3.951,3.951V186.26
				c0,1.086-0.388,2.056-1.162,2.905c-0.778,0.854-1.707,1.279-2.789,1.279c-1.086,0-2.055-0.424-2.905-1.279
				c-0.853-0.849-1.277-1.819-1.277-2.905v-12.083c-2.637,4.96-6.855,9.142-12.665,12.548c-5.81,3.41-12.125,5.113-18.94,5.113
				c-11.003,0-20.647-4.259-28.933-12.781C392.346,170.537,388.203,160.697,388.203,149.542z M396.337,149.542
				c0,8.831,3.289,16.732,9.876,23.704c6.583,6.971,14.212,10.457,22.891,10.457c8.366,0,15.802-3.057,22.31-9.18
				c6.507-6.118,9.76-11.579,9.76-16.383v-36.95c0-10.07-3.218-18.203-9.644-24.401c-6.431-6.195-13.828-9.296-22.194-9.296
				c-8.831,0-16.539,3.45-23.122,10.342c-6.587,6.895-9.876,14.681-9.876,23.355V149.542z"/>
			<path d="M492.775,215.542c0-12.241,7.048-20.84,21.148-25.795c-9.452-2.633-14.176-8.134-14.176-16.5
				c0-7.125,3.794-12.47,11.387-16.035c-8.057-7.125-12.085-16.885-12.085-29.281v-10.458c0-11.307,3.446-20.487,10.341-27.538
				c6.893-7.047,15.919-10.574,27.074-10.574c11.307,0,20.527,3.718,27.655,11.155c2.168-4.027,4.88-7.397,8.133-10.109
				c3.254-2.709,6.351-4.066,9.296-4.066c3.254,0,4.88,1.55,4.88,4.648c0,1.394-0.428,2.48-1.277,3.253
				c-0.853,0.777-1.823,1.162-2.905,1.162c-5.578,0-10.225,3.565-13.944,10.69c3.871,5.425,5.81,12.549,5.81,21.38v10.458
				c0,11.155-3.526,20.374-10.574,27.654c-7.051,7.284-16.151,10.923-27.306,10.923c-7.128,0-13.478-1.626-19.056-4.88
				c-6.198,2.789-9.296,6.507-9.296,11.155c0,3.475,1.826,6.154,5.48,8.043c3.653,1.888,8.213,3.141,13.678,3.762
				c5.461,0.624,11.347,1.292,17.654,2.007c6.308,0.719,12.169,1.78,17.586,3.185c5.417,1.405,9.942,4.179,13.58,8.319
				c3.639,4.14,5.458,9.488,5.458,16.05c0,9.912-3.874,17.621-11.62,23.122c-7.749,5.497-18.359,8.25-31.837,8.25
				c-13.635,0-24.557-2.712-32.767-8.134C496.879,231.961,492.775,224.681,492.775,215.542z M500.909,214.844
				c0,6.971,3.29,12.586,9.876,16.849c6.583,4.259,15.606,6.391,27.074,6.391c11.307,0,20.022-2.128,26.143-6.38
				c6.119-4.259,9.18-10.022,9.18-17.291c0-3.559-0.893-6.616-2.672-9.165c-1.783-2.557-3.914-4.528-6.395-5.919
				c-2.479-1.395-5.617-2.553-9.415-3.478c-3.798-0.933-7.204-1.547-10.225-1.849c-3.022-0.308-6.544-0.624-10.571-0.948
				c-4.027-0.33-6.892-0.656-8.595-0.984C509.043,196.718,500.909,204.307,500.909,214.844z M507.184,127.697
				c0,8.987,2.633,16.348,7.901,22.078c5.265,5.733,12.47,8.598,21.612,8.598c8.832,0,15.919-2.865,21.264-8.598
				c5.345-5.73,8.017-13.014,8.017-21.845v-10.458c0-8.674-2.636-15.839-7.901-21.496c-5.268-5.653-12.473-8.482-21.612-8.482
				c-8.987,0-16.115,2.829-21.38,8.482c-5.268,5.657-7.901,12.822-7.901,21.496V127.697z"/>
			<path d="M600.837,149.542v-29.049c0-11.154,4.068-20.798,12.201-28.932c8.134-8.133,17.855-12.2,29.165-12.2
				c11.155,0,20.799,3.99,28.933,11.968c8.133,7.981,12.201,17.934,12.201,29.862c0,4.03-0.465,7.284-1.395,9.76
				c-0.93,2.479-2.48,4.263-4.648,5.345c-2.171,1.086-4.146,1.742-5.926,1.975c-1.783,0.232-4.223,0.349-7.32,0.349h-55.076v10.922
				c0,10.382,3.639,18.671,10.922,24.866c7.281,6.198,16.733,9.296,28.353,9.296c5.729,0,10.534-0.813,14.408-2.44
				c3.871-1.626,6.776-3.213,8.715-4.764c1.936-1.547,3.37-2.323,4.299-2.323c1.082,0,2.052,0.465,2.905,1.393
				c0.85,0.93,1.278,1.859,1.278,2.789c0,1.551-1.241,3.37-3.718,5.461c-2.481,2.092-6.275,3.952-11.388,5.578
				c-5.112,1.626-10.77,2.44-16.964,2.44c-13.792,0-25.062-3.911-33.813-11.736C605.213,172.281,600.837,162.092,600.837,149.542z
				 M608.971,130.486h52.288c5.73,0,9.488-0.541,11.271-1.626c1.78-1.083,2.673-3.406,2.673-6.972c0-8.831-3.101-16.768-9.296-23.82
				c-6.198-7.048-14.1-10.574-23.704-10.574c-9.296,0-17.16,3.294-23.587,9.877c-6.431,6.587-9.644,14.293-9.644,23.122V130.486z"/>
		</g>
		
			<line style="fill:none;stroke:#000000;stroke-width:8;stroke-linecap:round;stroke-miterlimit:10;" x1="204.671" y1="83" x2="245.168" y2="83"/>
	</g>
</g>
<g id="White" style="display:none;">
	<g style="display:inline;">
		<g>
			<g>
				<defs>
					<rect id="SVGID_5_" x="8.308" y="11.481" width="123.909" height="208.18"/>
				</defs>
				<clipPath id="SVGID_6_">
					<use xlink:href="#SVGID_5_"  style="overflow:visible;"/>
				</clipPath>
				<path style="clip-path:url(#SVGID_6_);fill:#FFFFFF;" d="M116.416,11.481h-93.96c-7.807,0-14.148,6.345-14.148,14.152v168.675
					c0,7.807,6.341,14.148,14.148,14.148h1.108h8.327h75.594h8.327h0.604c7.807,0,14.148-6.341,14.148-14.148V25.633
					C130.564,17.827,124.223,11.481,116.416,11.481L116.416,11.481z M22.456,19.808h93.96c3.202,0,5.821,2.619,5.821,5.825v58.794
					H16.635V25.633C16.635,22.427,19.254,19.808,22.456,19.808L22.456,19.808z M116.416,200.13h-93.96
					c-3.202,0-5.821-2.619-5.821-5.821V92.755h105.601v101.538C122.237,197.511,119.618,200.13,116.416,200.13L116.416,200.13z
					 M116.416,200.13"/>
			</g>
			<path style="fill:#FFFFFF;" d="M27.648,108.106v22.608c0,5.35,8.327,5.367,8.327,0v-22.608
				C35.975,102.756,27.648,102.739,27.648,108.106L27.648,108.106z M27.648,108.106"/>
			<path style="fill:#FFFFFF;" d="M35.975,71.27V48.662c0-5.35-8.327-5.367-8.327,0V71.27C27.648,76.621,35.975,76.637,35.975,71.27
				L35.975,71.27z M35.975,71.27"/>
		</g>
		<g>
			<path style="fill:#FFFFFF;" d="M199.736,196.327V47.831c0-2.561,1.28-3.84,3.84-3.84h75.955c2.417,0,3.627,1.21,3.627,3.627
				c0,2.704-1.21,4.054-3.627,4.054h-72.114v66.354h34.137c2.417,0,3.627,1.354,3.627,4.054c0,2.42-1.21,3.627-3.627,3.627h-34.137
				v70.621c0,2.42-1.28,3.627-3.841,3.627C201.016,199.954,199.736,198.747,199.736,196.327z"/>
			<path style="fill:#FFFFFF;" d="M274.412,196.113v-93.236c0-2.417,1.207-3.627,3.627-3.627c2.561,0,3.84,1.21,3.84,3.627v11.308
				c6.401-10.808,16.285-16.215,29.657-16.215h7.894c0.994,0,1.847,0.394,2.561,1.173c0.71,0.784,1.066,1.674,1.066,2.667
				c0,0.997-0.356,1.85-1.066,2.561c-0.714,0.713-1.567,1.066-2.561,1.066h-7.894c-7.968,0-14.902,2.847-20.802,8.535
				c-5.904,5.69-8.854,13.157-8.854,22.402v59.739c0,0.997-0.393,1.888-1.173,2.667c-0.783,0.784-1.673,1.174-2.667,1.174
				c-0.997,0-1.85-0.39-2.56-1.174C274.765,198.001,274.412,197.11,274.412,196.113z"/>
			<path style="fill:#FFFFFF;" d="M338.951,63.939c-1.354-1.35-2.027-2.95-2.027-4.801c0-1.847,0.674-3.414,2.027-4.693
				c1.35-1.28,2.95-1.92,4.801-1.92c1.847,0,3.413,0.64,4.693,1.92c1.28,1.28,1.92,2.847,1.92,4.693c0,1.851-0.64,3.451-1.92,4.801
				c-1.28,1.354-2.847,2.027-4.693,2.027C341.902,65.966,340.301,65.293,338.951,63.939z M340.124,196.113v-93.236
				c0-0.994,0.354-1.847,1.067-2.56c0.71-0.71,1.563-1.067,2.561-1.067c2.56,0,3.84,1.21,3.84,3.627v93.236
				c0,0.997-0.394,1.888-1.174,2.667c-0.783,0.784-1.673,1.174-2.666,1.174c-0.997,0-1.851-0.39-2.561-1.174
				C340.478,198.001,340.124,197.11,340.124,196.113z"/>
			<path style="fill:#FFFFFF;" d="M372.767,162.403v-26.029c0-10.524,3.767-19.556,11.308-27.096
				c7.538-7.538,16.568-11.308,27.097-11.308c12.941,0,22.472,5.407,28.59,16.215V39.724c0-2.417,1.279-3.627,3.84-3.627
				c2.417,0,3.627,1.21,3.627,3.627v156.39c0,0.997-0.356,1.888-1.066,2.667c-0.714,0.784-1.567,1.174-2.561,1.174
				c-0.997,0-1.887-0.39-2.667-1.174c-0.783-0.779-1.173-1.67-1.173-2.667V185.02c-2.421,4.554-6.294,8.394-11.628,11.521
				c-5.334,3.131-11.132,4.694-17.389,4.694c-10.102,0-18.956-3.91-26.563-11.734C376.571,181.679,372.767,172.645,372.767,162.403z
				 M380.235,162.403c0,8.107,3.02,15.361,9.067,21.763c6.044,6.4,13.048,9.601,21.016,9.601c7.681,0,14.508-2.807,20.482-8.428
				c5.974-5.617,8.961-10.631,8.961-15.041v-33.924c0-9.245-2.954-16.712-8.854-22.402c-5.904-5.688-12.695-8.535-20.376-8.535
				c-8.107,0-15.185,3.167-21.229,9.495c-6.048,6.331-9.067,13.479-9.067,21.442V162.403z"/>
			<path style="fill:#FFFFFF;" d="M468.774,222.997c0-11.238,6.471-19.133,19.416-23.683c-8.678-2.417-13.015-7.468-13.015-15.148
				c0-6.541,3.483-11.448,10.454-14.722c-7.397-6.541-11.095-15.502-11.095-26.883v-9.602c0-10.381,3.164-18.809,9.494-25.283
				c6.328-6.47,14.615-9.708,24.856-9.708c10.381,0,18.846,3.414,25.39,10.241c1.99-3.697,4.48-6.791,7.467-9.281
				c2.987-2.487,5.831-3.733,8.534-3.733c2.987,0,4.48,1.423,4.48,4.267c0,1.28-0.393,2.277-1.173,2.987
				c-0.783,0.713-1.674,1.067-2.667,1.067c-5.121,0-9.388,3.273-12.802,9.814c3.554,4.98,5.334,11.521,5.334,19.628v9.602
				c0,10.241-3.237,18.705-9.708,25.389c-6.474,6.688-14.828,10.028-25.069,10.028c-6.544,0-12.374-1.493-17.495-4.48
				c-5.69,2.561-8.534,5.974-8.534,10.241c0,3.19,1.677,5.65,5.031,7.384c3.354,1.733,7.54,2.884,12.558,3.454
				c5.014,0.573,10.418,1.187,16.208,1.843c5.791,0.66,11.172,1.634,16.146,2.924s9.128,3.837,12.468,7.638
				c3.341,3.801,5.011,8.711,5.011,14.735c0,9.101-3.557,16.178-10.668,21.229c-7.114,5.047-16.855,7.574-29.23,7.574
				c-12.519,0-22.546-2.49-30.083-7.468C472.541,238.071,468.774,231.388,468.774,222.997z M476.241,222.356
				c0,6.4,3.021,11.555,9.067,15.469c6.044,3.91,14.328,5.867,24.856,5.867c10.381,0,18.382-1.954,24.002-5.857
				c5.618-3.91,8.428-9.201,8.428-15.875c0-3.268-0.82-6.074-2.453-8.414c-1.637-2.348-3.594-4.157-5.871-5.435
				c-2.276-1.28-5.157-2.344-8.644-3.193c-3.487-0.856-6.614-1.42-9.388-1.697c-2.774-0.283-6.008-0.573-9.705-0.87
				c-3.697-0.303-6.327-0.603-7.891-0.903C483.709,205.715,476.241,212.683,476.241,222.356z M482.002,142.348
				c0,8.251,2.417,15.009,7.254,20.27c4.834,5.264,11.448,7.894,19.842,7.894c8.108,0,14.615-2.63,19.522-7.894
				c4.907-5.261,7.36-11.948,7.36-20.056v-9.602c0-7.964-2.42-14.542-7.254-19.735c-4.837-5.19-11.451-7.788-19.842-7.788
				c-8.251,0-14.795,2.597-19.629,7.788c-4.837,5.194-7.254,11.771-7.254,19.735V142.348z"/>
			<path style="fill:#FFFFFF;" d="M567.985,162.403v-26.67c0-10.241,3.734-19.095,11.201-26.562
				c7.468-7.467,16.393-11.201,26.776-11.201c10.241,0,19.096,3.664,26.563,10.988c7.467,7.328,11.201,16.465,11.201,27.417
				c0,3.7-0.427,6.688-1.28,8.961c-0.854,2.276-2.277,3.914-4.268,4.907c-1.993,0.997-3.807,1.6-5.44,1.813
				c-1.637,0.213-3.877,0.32-6.721,0.32h-50.565v10.027c0,9.531,3.341,17.142,10.027,22.829c6.685,5.69,15.362,8.534,26.03,8.534
				c5.26,0,9.671-0.746,13.228-2.24c3.554-1.493,6.221-2.95,8.001-4.374c1.777-1.42,3.094-2.133,3.947-2.133
				c0.993,0,1.884,0.427,2.667,1.279c0.78,0.854,1.173,1.707,1.173,2.561c0,1.424-1.14,3.094-3.413,5.014
				c-2.277,1.921-5.761,3.628-10.455,5.121c-4.693,1.493-9.888,2.24-15.574,2.24c-12.662,0-23.01-3.591-31.044-10.774
				C572.002,183.279,567.985,173.925,567.985,162.403z M575.452,144.908h48.005c5.261,0,8.711-0.497,10.348-1.493
				c1.634-0.994,2.454-3.127,2.454-6.401c0-8.107-2.847-15.395-8.534-21.869c-5.69-6.471-12.945-9.708-21.763-9.708
				c-8.534,0-15.755,3.024-21.655,9.068c-5.904,6.047-8.854,13.122-8.854,21.229V144.908z"/>
		</g>
	</g>
</g>
<g id="Black" style="display:none;">
	<g style="display:inline;">
		<g>
			<g>
				<defs>
					<rect id="SVGID_7_" x="8.308" y="11.481" width="123.909" height="208.18"/>
				</defs>
				<clipPath id="SVGID_8_">
					<use xlink:href="#SVGID_7_"  style="overflow:visible;"/>
				</clipPath>
				<path style="clip-path:url(#SVGID_8_);" d="M116.416,11.481h-93.96c-7.807,0-14.148,6.345-14.148,14.152v168.675
					c0,7.807,6.341,14.148,14.148,14.148h1.108h8.327h75.594h8.327h0.604c7.807,0,14.148-6.341,14.148-14.148V25.633
					C130.564,17.827,124.223,11.481,116.416,11.481L116.416,11.481z M22.456,19.808h93.96c3.202,0,5.821,2.619,5.821,5.825v58.794
					H16.635V25.633C16.635,22.427,19.254,19.808,22.456,19.808L22.456,19.808z M116.416,200.13h-93.96
					c-3.202,0-5.821-2.619-5.821-5.821V92.755h105.601v101.538C122.237,197.511,119.618,200.13,116.416,200.13L116.416,200.13z
					 M116.416,200.13"/>
			</g>
			<path d="M27.648,108.106v22.608c0,5.35,8.327,5.367,8.327,0v-22.608C35.975,102.756,27.648,102.739,27.648,108.106
				L27.648,108.106z M27.648,108.106"/>
			<path d="M35.975,71.27V48.662c0-5.35-8.327-5.367-8.327,0V71.27C27.648,76.621,35.975,76.637,35.975,71.27L35.975,71.27z
				 M35.975,71.27"/>
		</g>
		<g>
			<path d="M199.736,196.327V47.831c0-2.561,1.28-3.84,3.84-3.84h75.955c2.417,0,3.627,1.21,3.627,3.627
				c0,2.704-1.21,4.054-3.627,4.054h-72.114v66.354h34.137c2.417,0,3.627,1.354,3.627,4.054c0,2.42-1.21,3.627-3.627,3.627h-34.137
				v70.621c0,2.42-1.28,3.627-3.841,3.627C201.016,199.954,199.736,198.747,199.736,196.327z"/>
			<path d="M274.412,196.113v-93.236c0-2.417,1.207-3.627,3.627-3.627c2.561,0,3.84,1.21,3.84,3.627v11.308
				c6.401-10.808,16.285-16.215,29.657-16.215h7.894c0.994,0,1.847,0.394,2.561,1.173c0.71,0.784,1.066,1.674,1.066,2.667
				c0,0.997-0.356,1.85-1.066,2.561c-0.714,0.713-1.567,1.066-2.561,1.066h-7.894c-7.968,0-14.902,2.847-20.802,8.535
				c-5.904,5.69-8.854,13.157-8.854,22.402v59.739c0,0.997-0.393,1.888-1.173,2.667c-0.783,0.784-1.673,1.174-2.667,1.174
				c-0.997,0-1.85-0.39-2.56-1.174C274.765,198.001,274.412,197.11,274.412,196.113z"/>
			<path d="M338.951,63.939c-1.354-1.35-2.027-2.95-2.027-4.801c0-1.847,0.674-3.414,2.027-4.693c1.35-1.28,2.95-1.92,4.801-1.92
				c1.847,0,3.413,0.64,4.693,1.92c1.28,1.28,1.92,2.847,1.92,4.693c0,1.851-0.64,3.451-1.92,4.801
				c-1.28,1.354-2.847,2.027-4.693,2.027C341.902,65.966,340.301,65.293,338.951,63.939z M340.124,196.113v-93.236
				c0-0.994,0.354-1.847,1.067-2.56c0.71-0.71,1.563-1.067,2.561-1.067c2.56,0,3.84,1.21,3.84,3.627v93.236
				c0,0.997-0.394,1.888-1.174,2.667c-0.783,0.784-1.673,1.174-2.666,1.174c-0.997,0-1.851-0.39-2.561-1.174
				C340.478,198.001,340.124,197.11,340.124,196.113z"/>
			<path d="M372.767,162.403v-26.029c0-10.524,3.767-19.556,11.308-27.096c7.538-7.538,16.568-11.308,27.097-11.308
				c12.941,0,22.472,5.407,28.59,16.215V39.724c0-2.417,1.279-3.627,3.84-3.627c2.417,0,3.627,1.21,3.627,3.627v156.39
				c0,0.997-0.356,1.888-1.066,2.667c-0.714,0.784-1.567,1.174-2.561,1.174c-0.997,0-1.887-0.39-2.667-1.174
				c-0.783-0.779-1.173-1.67-1.173-2.667V185.02c-2.421,4.554-6.294,8.394-11.628,11.521c-5.334,3.131-11.132,4.694-17.389,4.694
				c-10.102,0-18.956-3.91-26.563-11.734C376.571,181.679,372.767,172.645,372.767,162.403z M380.235,162.403
				c0,8.107,3.02,15.361,9.067,21.763c6.044,6.4,13.048,9.601,21.016,9.601c7.681,0,14.508-2.807,20.482-8.428
				c5.974-5.617,8.961-10.631,8.961-15.041v-33.924c0-9.245-2.954-16.712-8.854-22.402c-5.904-5.688-12.695-8.535-20.376-8.535
				c-8.107,0-15.185,3.167-21.229,9.495c-6.048,6.331-9.067,13.479-9.067,21.442V162.403z"/>
			<path d="M468.774,222.997c0-11.238,6.471-19.133,19.416-23.683c-8.678-2.417-13.015-7.468-13.015-15.148
				c0-6.541,3.483-11.448,10.454-14.722c-7.397-6.541-11.095-15.502-11.095-26.883v-9.602c0-10.381,3.164-18.809,9.494-25.283
				c6.328-6.47,14.615-9.708,24.856-9.708c10.381,0,18.846,3.414,25.39,10.241c1.99-3.697,4.48-6.791,7.467-9.281
				c2.987-2.487,5.831-3.733,8.534-3.733c2.987,0,4.48,1.423,4.48,4.267c0,1.28-0.393,2.277-1.173,2.987
				c-0.783,0.713-1.674,1.067-2.667,1.067c-5.121,0-9.388,3.273-12.802,9.814c3.554,4.98,5.334,11.521,5.334,19.628v9.602
				c0,10.241-3.237,18.705-9.708,25.389c-6.474,6.688-14.828,10.028-25.069,10.028c-6.544,0-12.374-1.493-17.495-4.48
				c-5.69,2.561-8.534,5.974-8.534,10.241c0,3.19,1.677,5.65,5.031,7.384c3.354,1.733,7.54,2.884,12.558,3.454
				c5.014,0.573,10.418,1.187,16.208,1.843c5.791,0.66,11.172,1.634,16.146,2.924s9.128,3.837,12.468,7.638
				c3.341,3.801,5.011,8.711,5.011,14.735c0,9.101-3.557,16.178-10.668,21.229c-7.114,5.047-16.855,7.574-29.23,7.574
				c-12.519,0-22.546-2.49-30.083-7.468C472.541,238.071,468.774,231.388,468.774,222.997z M476.241,222.356
				c0,6.4,3.021,11.555,9.067,15.469c6.044,3.91,14.328,5.867,24.856,5.867c10.381,0,18.382-1.954,24.002-5.857
				c5.618-3.91,8.428-9.201,8.428-15.875c0-3.268-0.82-6.074-2.453-8.414c-1.637-2.348-3.594-4.157-5.871-5.435
				c-2.276-1.28-5.157-2.344-8.644-3.193c-3.487-0.856-6.614-1.42-9.388-1.697c-2.774-0.283-6.008-0.573-9.705-0.87
				c-3.697-0.303-6.327-0.603-7.891-0.903C483.709,205.715,476.241,212.683,476.241,222.356z M482.002,142.348
				c0,8.251,2.417,15.009,7.254,20.27c4.834,5.264,11.448,7.894,19.842,7.894c8.108,0,14.615-2.63,19.522-7.894
				c4.907-5.261,7.36-11.948,7.36-20.056v-9.602c0-7.964-2.42-14.542-7.254-19.735c-4.837-5.19-11.451-7.788-19.842-7.788
				c-8.251,0-14.795,2.597-19.629,7.788c-4.837,5.194-7.254,11.771-7.254,19.735V142.348z"/>
			<path d="M567.985,162.403v-26.67c0-10.241,3.734-19.095,11.201-26.562c7.468-7.467,16.393-11.201,26.776-11.201
				c10.241,0,19.096,3.664,26.563,10.988c7.467,7.328,11.201,16.465,11.201,27.417c0,3.7-0.427,6.688-1.28,8.961
				c-0.854,2.276-2.277,3.914-4.268,4.907c-1.993,0.997-3.807,1.6-5.44,1.813c-1.637,0.213-3.877,0.32-6.721,0.32h-50.565v10.027
				c0,9.531,3.341,17.142,10.027,22.829c6.685,5.69,15.362,8.534,26.03,8.534c5.26,0,9.671-0.746,13.228-2.24
				c3.554-1.493,6.221-2.95,8.001-4.374c1.777-1.42,3.094-2.133,3.947-2.133c0.993,0,1.884,0.427,2.667,1.279
				c0.78,0.854,1.173,1.707,1.173,2.561c0,1.424-1.14,3.094-3.413,5.014c-2.277,1.921-5.761,3.628-10.455,5.121
				c-4.693,1.493-9.888,2.24-15.574,2.24c-12.662,0-23.01-3.591-31.044-10.774C572.002,183.279,567.985,173.925,567.985,162.403z
				 M575.452,144.908h48.005c5.261,0,8.711-0.497,10.348-1.493c1.634-0.994,2.454-3.127,2.454-6.401
				c0-8.107-2.847-15.395-8.534-21.869c-5.69-6.471-12.945-9.708-21.763-9.708c-8.534,0-15.755,3.024-21.655,9.068
				c-5.904,6.047-8.854,13.122-8.854,21.229V144.908z"/>
		</g>
	</g>
</g>
</svg>
