<?xml version="1.0" encoding="utf-8"?>
<!-- Generator: Adobe Illustrator 21.1.0, SVG Export Plug-In . SVG Version: 6.00 Build 0)  -->
<svg version="1.1" id="Layer_1" xmlns="http://www.w3.org/2000/svg" xmlns:xlink="http://www.w3.org/1999/xlink" x="0px" y="0px"
	 viewBox="0 0 770 260" style="enable-background:new 0 0 770 260;" xml:space="preserve">
<style type="text/css">
	.st0{display:none;}
	.st1{display:inline;}
	.st2{clip-path:url(#SVGID_2_);}
	.st3{fill:#FFFFFF;}
	.st4{fill:none;stroke:#FFFFFF;stroke-width:12;stroke-miterlimit:10;}
	.st5{fill:none;stroke:#FFFFFF;stroke-width:12;stroke-linecap:round;stroke-miterlimit:10;}
	.st6{display:inline;fill:none;stroke:#000000;stroke-width:8;stroke-miterlimit:10;}
	.st7{clip-path:url(#SVGID_4_);}
	.st8{fill:none;stroke:#000000;stroke-width:8;stroke-linecap:round;stroke-miterlimit:10;}
	.st9{clip-path:url(#SVGID_6_);fill:#FFFFFF;}
	.st10{clip-path:url(#SVGID_8_);}
</style>
<g id="Exp_1" class="st0">
	<g class="st1">
		<g>
			<g>
				<g>
					<defs>
						<rect id="SVGID_1_" x="8.3" y="6.5" width="123.9" height="208.2"/>
					</defs>
					<clipPath id="SVGID_2_">
						<use xlink:href="#SVGID_1_"  style="overflow:visible;"/>
					</clipPath>
					<path class="st2" d="M116.4,6.5h-94c-7.8,0-14.1,6.3-14.1,14.2v168.7c0,7.8,6.3,14.1,14.1,14.1h1.1h8.3h75.6h8.3h0.6
						c7.8,0,14.1-6.3,14.1-14.1V20.6C130.6,12.8,124.2,6.5,116.4,6.5L116.4,6.5z M22.5,14.8h94c3.2,0,5.8,2.6,5.8,5.8v58.8H16.6
						V20.6C16.6,17.4,19.3,14.8,22.5,14.8L22.5,14.8z M116.4,195.1h-94c-3.2,0-5.8-2.6-5.8-5.8V87.8h105.6v101.5
						C122.2,192.5,119.6,195.1,116.4,195.1L116.4,195.1z"/>
				</g>
			</g>
			<path d="M27.6,103.1v22.6c0,5.4,8.3,5.4,8.3,0v-22.6C36,97.8,27.6,97.7,27.6,103.1L27.6,103.1z"/>
			<path d="M36,66.3V43.7c0-5.3-8.3-5.4-8.3,0v22.6C27.6,71.6,36,71.6,36,66.3L36,66.3z"/>
		</g>
		<g>
			<path d="M199.7,191.3V42.8c0-2.6,1.3-3.8,3.8-3.8h76c2.4,0,3.6,1.2,3.6,3.6c0,2.7-1.2,4.1-3.6,4.1h-72.1V113h34.1
				c2.4,0,3.6,1.4,3.6,4.1c0,2.4-1.2,3.6-3.6,3.6h-34.1v70.6c0,2.4-1.3,3.6-3.8,3.6S199.7,193.7,199.7,191.3z"/>
			<path d="M274.4,191.1V97.9c0-2.4,1.2-3.6,3.6-3.6c2.6,0,3.8,1.2,3.8,3.6v11.3c6.4-10.8,16.3-16.2,29.7-16.2h7.9
				c1,0,1.8,0.4,2.6,1.2c0.7,0.8,1.1,1.7,1.1,2.7c0,1-0.4,1.8-1.1,2.6c-0.7,0.7-1.6,1.1-2.6,1.1h-7.9c-8,0-14.9,2.8-20.8,8.5
				c-5.9,5.7-8.9,13.2-8.9,22.4v59.7c0,1-0.4,1.9-1.2,2.7c-0.8,0.8-1.7,1.2-2.7,1.2c-1,0-1.9-0.4-2.6-1.2
				C274.8,193,274.4,192.1,274.4,191.1z"/>
			<path d="M339,58.9c-1.4-1.3-2-3-2-4.8c0-1.8,0.7-3.4,2-4.7c1.4-1.3,3-1.9,4.8-1.9c1.8,0,3.4,0.6,4.7,1.9s1.9,2.8,1.9,4.7
				c0,1.9-0.6,3.5-1.9,4.8c-1.3,1.4-2.8,2-4.7,2C341.9,61,340.3,60.3,339,58.9z M340.1,191.1V97.9c0-1,0.4-1.8,1.1-2.6
				c0.7-0.7,1.6-1.1,2.6-1.1c2.6,0,3.8,1.2,3.8,3.6v93.2c0,1-0.4,1.9-1.2,2.7c-0.8,0.8-1.7,1.2-2.7,1.2c-1,0-1.9-0.4-2.6-1.2
				C340.5,193,340.1,192.1,340.1,191.1z"/>
			<path d="M372.8,157.4v-26c0-10.5,3.8-19.6,11.3-27.1c7.5-7.5,16.6-11.3,27.1-11.3c12.9,0,22.5,5.4,28.6,16.2V34.7
				c0-2.4,1.3-3.6,3.8-3.6c2.4,0,3.6,1.2,3.6,3.6v156.4c0,1-0.4,1.9-1.1,2.7c-0.7,0.8-1.6,1.2-2.6,1.2c-1,0-1.9-0.4-2.7-1.2
				c-0.8-0.8-1.2-1.7-1.2-2.7V180c-2.4,4.6-6.3,8.4-11.6,11.5c-5.3,3.1-11.1,4.7-17.4,4.7c-10.1,0-19-3.9-26.6-11.7
				C376.6,176.7,372.8,167.6,372.8,157.4z M380.2,157.4c0,8.1,3,15.4,9.1,21.8c6,6.4,13,9.6,21,9.6c7.7,0,14.5-2.8,20.5-8.4
				c6-5.6,9-10.6,9-15v-33.9c0-9.2-3-16.7-8.9-22.4c-5.9-5.7-12.7-8.5-20.4-8.5c-8.1,0-15.2,3.2-21.2,9.5c-6,6.3-9.1,13.5-9.1,21.4
				L380.2,157.4L380.2,157.4z"/>
			<path d="M468.8,218c0-11.2,6.5-19.1,19.4-23.7c-8.7-2.4-13-7.5-13-15.1c0-6.5,3.5-11.4,10.5-14.7c-7.4-6.5-11.1-15.5-11.1-26.9
				V128c0-10.4,3.2-18.8,9.5-25.3c6.3-6.5,14.6-9.7,24.9-9.7c10.4,0,18.8,3.4,25.4,10.2c2-3.7,4.5-6.8,7.5-9.3
				c3-2.5,5.8-3.7,8.5-3.7c3,0,4.5,1.4,4.5,4.3c0,1.3-0.4,2.3-1.2,3c-0.8,0.7-1.7,1.1-2.7,1.1c-5.1,0-9.4,3.3-12.8,9.8
				c3.6,5,5.3,11.5,5.3,19.6v9.6c0,10.2-3.2,18.7-9.7,25.4c-6.5,6.7-14.8,10-25.1,10c-6.5,0-12.4-1.5-17.5-4.5
				c-5.7,2.6-8.5,6-8.5,10.2c0,3.2,1.7,5.6,5,7.4c3.4,1.7,7.5,2.9,12.6,3.5c5,0.6,10.4,1.2,16.2,1.8c5.8,0.7,11.2,1.6,16.1,2.9
				s9.1,3.8,12.5,7.6c3.3,3.8,5,8.7,5,14.7c0,9.1-3.6,16.2-10.7,21.2c-7.1,5-16.9,7.6-29.2,7.6c-12.5,0-22.5-2.5-30.1-7.5
				C472.5,233.1,468.8,226.4,468.8,218z M476.2,217.4c0,6.4,3,11.6,9.1,15.5c6,3.9,14.3,5.9,24.9,5.9c10.4,0,18.4-2,24-5.9
				c5.6-3.9,8.4-9.2,8.4-15.9c0-3.3-0.8-6.1-2.5-8.4c-1.6-2.3-3.6-4.2-5.9-5.4c-2.3-1.3-5.2-2.3-8.6-3.2c-3.5-0.9-6.6-1.4-9.4-1.7
				c-2.8-0.3-6-0.6-9.7-0.9c-3.7-0.3-6.3-0.6-7.9-0.9C483.7,200.7,476.2,207.7,476.2,217.4z M482,137.3c0,8.3,2.4,15,7.3,20.3
				c4.8,5.3,11.4,7.9,19.8,7.9c8.1,0,14.6-2.6,19.5-7.9c4.9-5.3,7.4-11.9,7.4-20.1V128c0-8-2.4-14.5-7.3-19.7
				c-4.8-5.2-11.5-7.8-19.8-7.8c-8.3,0-14.8,2.6-19.6,7.8c-4.8,5.2-7.3,11.8-7.3,19.7L482,137.3L482,137.3z"/>
			<path d="M568,157.4v-26.7c0-10.2,3.7-19.1,11.2-26.6C586.7,96.7,595.6,93,606,93c10.2,0,19.1,3.7,26.6,11
				c7.5,7.3,11.2,16.5,11.2,27.4c0,3.7-0.4,6.7-1.3,9c-0.9,2.3-2.3,3.9-4.3,4.9c-2,1-3.8,1.6-5.4,1.8c-1.6,0.2-3.9,0.3-6.7,0.3
				h-50.6v10c0,9.5,3.3,17.1,10,22.8c6.7,5.7,15.4,8.5,26,8.5c5.3,0,9.7-0.7,13.2-2.2c3.6-1.5,6.2-2.9,8-4.4
				c1.8-1.4,3.1-2.1,3.9-2.1c1,0,1.9,0.4,2.7,1.3c0.8,0.9,1.2,1.7,1.2,2.6c0,1.4-1.1,3.1-3.4,5c-2.3,1.9-5.8,3.6-10.5,5.1
				c-4.7,1.5-9.9,2.2-15.6,2.2c-12.7,0-23-3.6-31-10.8C572,178.3,568,168.9,568,157.4z M575.5,139.9h48c5.3,0,8.7-0.5,10.3-1.5
				c1.6-1,2.5-3.1,2.5-6.4c0-8.1-2.8-15.4-8.5-21.9c-5.7-6.5-12.9-9.7-21.8-9.7c-8.5,0-15.8,3-21.7,9.1c-5.9,6-8.9,13.1-8.9,21.2
				L575.5,139.9L575.5,139.9z"/>
		</g>
	</g>
</g>
<g id="Exp_1_copy">
	<g>
		<path class="st3" d="M276.6,134h-72.8V207h-13.2V50.8h96.8V62h-83.6v60.8h72.8V134z"/>
		<path class="st3" d="M362,101.9c-2.7-0.5-5.6-0.8-8.7-0.8c-8,0-14.8,2.2-20.3,6.7c-5.5,4.5-9.5,11-11.9,19.5V207h-12.8V91H321
			l0.2,18.5c6.8-13.7,17.7-20.6,32.7-20.6c3.6,0,6.4,0.5,8.5,1.4L362,101.9z"/>
		<path class="st3" d="M381.6,57.4c0-2.4,0.8-4.5,2.4-6.1c1.6-1.7,3.7-2.5,6.4-2.5c2.7,0,4.9,0.8,6.5,2.5s2.4,3.7,2.4,6.1
			s-0.8,4.4-2.4,6.1c-1.6,1.6-3.8,2.5-6.5,2.5c-2.7,0-4.9-0.8-6.4-2.5C382.4,61.9,381.6,59.9,381.6,57.4z M396.7,207h-12.9V91h12.9
			V207z"/>
		<path class="st3" d="M426.4,147.9c0-18,4-32.4,12.1-43.1c8-10.7,19-16,32.8-16c15.7,0,27.6,6.2,35.8,18.6V42.3h12.8V207h-12
			l-0.5-15.4c-8.2,11.7-20.3,17.6-36.3,17.6c-13.4,0-24.2-5.4-32.3-16.1c-8.2-10.8-12.3-25.3-12.3-43.6L426.4,147.9L426.4,147.9z
			 M439.4,150.2c0,14.8,3,26.5,8.9,35c5.9,8.5,14.3,12.8,25.1,12.8c15.8,0,27-7,33.7-20.9v-54.5c-6.7-15.1-17.8-22.6-33.5-22.6
			c-10.8,0-19.2,4.2-25.2,12.7C442.4,121.2,439.4,133.7,439.4,150.2z"/>
		<path class="st3" d="M548.5,147.9c0-18.2,4-32.6,12.1-43.2s19-15.9,32.8-15.9c15.8,0,27.8,6.3,36,18.9L630,91h12v113.7
			c0,14.9-4.2,26.8-12.6,35.5c-8.4,8.7-19.7,13.1-34,13.1c-8.1,0-15.8-1.8-23.1-5.4c-7.3-3.6-13.1-8.4-17.3-14.4l7.2-7.7
			c9.1,11.2,19.9,16.7,32.4,16.7c10.7,0,19.1-3.2,25.1-9.5c6-6.3,9.1-15.1,9.3-26.3V192c-8.2,11.4-20.2,17.2-35.9,17.2
			c-13.4,0-24.2-5.4-32.4-16.1s-12.2-25.2-12.2-43.4L548.5,147.9L548.5,147.9z M561.5,150.2c0,14.8,3,26.5,8.9,35
			c5.9,8.5,14.3,12.8,25.1,12.8c15.8,0,27-7.1,33.6-21.2v-54c-3-7.4-7.3-13.1-13-17c-5.7-3.9-12.4-5.8-20.4-5.8
			c-10.8,0-19.2,4.2-25.2,12.7C564.5,121.2,561.5,133.7,561.5,150.2z"/>
		<path class="st3" d="M720.5,209.2c-9.9,0-18.8-2.4-26.8-7.3c-8-4.9-14.2-11.6-18.6-20.3c-4.4-8.7-6.7-18.4-6.7-29.2v-4.6
			c0-11.2,2.2-21.2,6.5-30.1c4.3-8.9,10.4-16,18.1-21.1c7.7-5.1,16.1-7.7,25.1-7.7c14.1,0,25.3,4.8,33.5,14.4
			c8.3,9.6,12.4,22.8,12.4,39.4v7.2h-82.8v2.5c0,13.2,3.8,24.1,11.3,32.9c7.5,8.8,17,13.1,28.5,13.1c6.9,0,12.9-1.2,18.2-3.8
			c5.3-2.5,10-6.5,14.3-12l8,6.1C752.1,202.4,738.4,209.2,720.5,209.2z M718.1,99.8c-9.7,0-17.8,3.5-24.4,10.6
			c-6.6,7.1-10.6,16.6-12.1,28.5h69.6v-1.4c-0.4-11.2-3.5-20.2-9.5-27.2C735.7,103.3,727.8,99.8,718.1,99.8z"/>
	</g>
	<path class="st4" d="M112.8,201.8H24.7c-7.2,0-13.1-5.9-13.1-13.1V25.2c0-7.2,5.9-13.1,13.1-13.1h88.1c7.2,0,13.1,5.9,13.1,13.1
		v163.5C125.9,195.9,120,201.8,112.8,201.8z"/>
	<line class="st4" x1="11.6" y1="84.4" x2="125.9" y2="84.4"/>
	<line class="st5" x1="31.8" y1="63.2" x2="31.8" y2="40.7"/>
	<line class="st5" x1="31.8" y1="127.4" x2="31.8" y2="104.8"/>
</g>
<g id="Layer_7" class="st0">
</g>
<g id="Exp_2" class="st0">
	<path class="st6" d="M120.1,203H20.4c-6.6,0-22.1-33.2-22.1-98.2S13.7,6.5,20.4,6.5h99.8c6.6,0,22.2,35,22.2,98.2
		S126.8,203,120.1,203z"/>
	<path class="st1" d="M27.6,103.1v22.6c0,5.4,8.3,5.4,8.3,0v-22.6C36,97.8,27.6,97.7,27.6,103.1L27.6,103.1z"/>
	<path class="st1" d="M36,66.3V43.7c0-5.3-8.3-5.4-8.3,0v22.6C27.6,71.6,36,71.6,36,66.3L36,66.3z"/>
	<line class="st6" x1="-1.3" y1="84.6" x2="141.9" y2="84.6"/>
	<g class="st1">
		<path d="M211.6,199.3V50.8c0-2.6,1.3-3.8,3.8-3.8h76c2.4,0,3.6,1.2,3.6,3.6c0,2.7-1.2,4.1-3.6,4.1h-72.1V121h34.1
			c2.4,0,3.6,1.4,3.6,4.1c0,2.4-1.2,3.6-3.6,3.6h-34.1v70.6c0,2.4-1.3,3.6-3.8,3.6C212.9,203,211.6,201.7,211.6,199.3z"/>
		<path d="M286.3,199.1v-93.2c0-2.4,1.2-3.6,3.6-3.6c2.6,0,3.8,1.2,3.8,3.6v11.3c6.4-10.8,16.3-16.2,29.7-16.2h7.9
			c1,0,1.8,0.4,2.6,1.2c0.7,0.8,1.1,1.7,1.1,2.7c0,1-0.4,1.8-1.1,2.6c-0.7,0.7-1.6,1.1-2.6,1.1h-7.9c-8,0-14.9,2.8-20.8,8.5
			c-5.9,5.7-8.9,13.2-8.9,22.4v59.7c0,1-0.4,1.9-1.2,2.7c-0.8,0.8-1.7,1.2-2.7,1.2c-1,0-1.9-0.4-2.6-1.2
			C286.6,201,286.3,200.1,286.3,199.1z"/>
		<path d="M350.8,66.9c-1.4-1.3-2-3-2-4.8c0-1.8,0.7-3.4,2-4.7c1.4-1.3,3-1.9,4.8-1.9c1.8,0,3.4,0.6,4.7,1.9s1.9,2.8,1.9,4.7
			c0,1.9-0.6,3.5-1.9,4.8c-1.3,1.4-2.8,2-4.7,2C353.8,69,352.2,68.3,350.8,66.9z M352,199.1v-93.2c0-1,0.4-1.8,1.1-2.6
			c0.7-0.7,1.6-1.1,2.6-1.1c2.6,0,3.8,1.2,3.8,3.6v93.2c0,1-0.4,1.9-1.2,2.7c-0.8,0.8-1.7,1.2-2.7,1.2c-1,0-1.9-0.4-2.6-1.2
			C352.3,201,352,200.1,352,199.1z"/>
		<path d="M384.6,165.4v-26c0-10.5,3.8-19.6,11.3-27.1c7.5-7.5,16.6-11.3,27.1-11.3c12.9,0,22.5,5.4,28.6,16.2V42.7
			c0-2.4,1.3-3.6,3.8-3.6c2.4,0,3.6,1.2,3.6,3.6v156.4c0,1-0.4,1.9-1.1,2.7c-0.7,0.8-1.6,1.2-2.6,1.2c-1,0-1.9-0.4-2.7-1.2
			c-0.8-0.8-1.2-1.7-1.2-2.7V188c-2.4,4.6-6.3,8.4-11.6,11.5c-5.3,3.1-11.1,4.7-17.4,4.7c-10.1,0-19-3.9-26.6-11.7
			C388.4,184.7,384.6,175.6,384.6,165.4z M392.1,165.4c0,8.1,3,15.4,9.1,21.8c6,6.4,13,9.6,21,9.6c7.7,0,14.5-2.8,20.5-8.4
			c6-5.6,9-10.6,9-15v-33.9c0-9.2-3-16.7-8.9-22.4c-5.9-5.7-12.7-8.5-20.4-8.5c-8.1,0-15.2,3.2-21.2,9.5c-6,6.3-9.1,13.5-9.1,21.4
			L392.1,165.4L392.1,165.4z"/>
		<path d="M480.6,226c0-11.2,6.5-19.1,19.4-23.7c-8.7-2.4-13-7.5-13-15.1c0-6.5,3.5-11.4,10.5-14.7c-7.4-6.5-11.1-15.5-11.1-26.9
			V136c0-10.4,3.2-18.8,9.5-25.3c6.3-6.5,14.6-9.7,24.9-9.7c10.4,0,18.8,3.4,25.4,10.2c2-3.7,4.5-6.8,7.5-9.3c3-2.5,5.8-3.7,8.5-3.7
			c3,0,4.5,1.4,4.5,4.3c0,1.3-0.4,2.3-1.2,3c-0.8,0.7-1.7,1.1-2.7,1.1c-5.1,0-9.4,3.3-12.8,9.8c3.6,5,5.3,11.5,5.3,19.6v9.6
			c0,10.2-3.2,18.7-9.7,25.4c-6.5,6.7-14.8,10-25.1,10c-6.5,0-12.4-1.5-17.5-4.5c-5.7,2.6-8.5,6-8.5,10.2c0,3.2,1.7,5.6,5,7.4
			c3.4,1.7,7.5,2.9,12.6,3.5c5,0.6,10.4,1.2,16.2,1.8c5.8,0.7,11.2,1.6,16.1,2.9s9.1,3.8,12.5,7.6c3.3,3.8,5,8.7,5,14.7
			c0,9.1-3.6,16.2-10.7,21.2c-7.1,5-16.9,7.6-29.2,7.6c-12.5,0-22.5-2.5-30.1-7.5C484.4,241.1,480.6,234.4,480.6,226z M488.1,225.4
			c0,6.4,3,11.6,9.1,15.5c6,3.9,14.3,5.9,24.9,5.9c10.4,0,18.4-2,24-5.9c5.6-3.9,8.4-9.2,8.4-15.9c0-3.3-0.8-6.1-2.5-8.4
			c-1.6-2.3-3.6-4.2-5.9-5.4c-2.3-1.3-5.2-2.3-8.6-3.2c-3.5-0.9-6.6-1.4-9.4-1.7c-2.8-0.3-6-0.6-9.7-0.9c-3.7-0.3-6.3-0.6-7.9-0.9
			C495.6,208.7,488.1,215.7,488.1,225.4z M493.9,145.3c0,8.3,2.4,15,7.3,20.3c4.8,5.3,11.4,7.9,19.8,7.9c8.1,0,14.6-2.6,19.5-7.9
			c4.9-5.3,7.4-11.9,7.4-20.1V136c0-8-2.4-14.5-7.3-19.7c-4.8-5.2-11.5-7.8-19.8-7.8c-8.3,0-14.8,2.6-19.6,7.8
			c-4.8,5.2-7.3,11.8-7.3,19.7L493.9,145.3L493.9,145.3z"/>
		<path d="M579.9,165.4v-26.7c0-10.2,3.7-19.1,11.2-26.6c7.5-7.5,16.4-11.2,26.8-11.2c10.2,0,19.1,3.7,26.6,11
			c7.5,7.3,11.2,16.5,11.2,27.4c0,3.7-0.4,6.7-1.3,9c-0.9,2.3-2.3,3.9-4.3,4.9c-2,1-3.8,1.6-5.4,1.8c-1.6,0.2-3.9,0.3-6.7,0.3h-50.6
			v10c0,9.5,3.3,17.1,10,22.8c6.7,5.7,15.4,8.5,26,8.5c5.3,0,9.7-0.7,13.2-2.2c3.6-1.5,6.2-2.9,8-4.4c1.8-1.4,3.1-2.1,3.9-2.1
			c1,0,1.9,0.4,2.7,1.3c0.8,0.9,1.2,1.7,1.2,2.6c0,1.4-1.1,3.1-3.4,5c-2.3,1.9-5.8,3.6-10.5,5.1c-4.7,1.5-9.9,2.2-15.6,2.2
			c-12.7,0-23-3.6-31-10.8C583.9,186.3,579.9,176.9,579.9,165.4z M587.3,147.9h48c5.3,0,8.7-0.5,10.3-1.5c1.6-1,2.5-3.1,2.5-6.4
			c0-8.1-2.8-15.4-8.5-21.9c-5.7-6.5-12.9-9.7-21.8-9.7c-8.5,0-15.8,3-21.7,9.1c-5.9,6-8.9,13.1-8.9,21.2L587.3,147.9L587.3,147.9z"
			/>
	</g>
</g>
<g id="Exp_3" class="st0">
	<g class="st1">
		<g>
			<g>
				<g>
					<defs>
						<rect id="SVGID_3_" x="8.3" y="6.5" width="123.9" height="208.2"/>
					</defs>
					<clipPath id="SVGID_4_">
						<use xlink:href="#SVGID_3_"  style="overflow:visible;"/>
					</clipPath>
					<path class="st7" d="M116.4,6.5h-94c-7.8,0-14.1,6.3-14.1,14.2v168.7c0,7.8,6.3,14.1,14.1,14.1h1.1h8.3h75.6h8.3h0.6
						c7.8,0,14.1-6.3,14.1-14.1V20.6C130.6,12.8,124.2,6.5,116.4,6.5L116.4,6.5z M22.5,14.8h94c3.2,0,5.8,2.6,5.8,5.8v58.8H16.6
						V20.6C16.6,17.4,19.3,14.8,22.5,14.8L22.5,14.8z M116.4,195.1h-94c-3.2,0-5.8-2.6-5.8-5.8V87.8h105.6v101.5
						C122.2,192.5,119.6,195.1,116.4,195.1L116.4,195.1z"/>
				</g>
			</g>
			<path d="M27.6,103.1v22.6c0,5.4,8.3,5.4,8.3,0v-22.6C36,97.8,27.6,97.7,27.6,103.1L27.6,103.1z"/>
			<path d="M36,66.3V43.7c0-5.3-8.3-5.4-8.3,0v22.6C27.6,71.6,36,71.6,36,66.3L36,66.3z"/>
		</g>
		<g>
			<path d="M199.7,186.5V24.7c0-2.8,1.4-4.2,4.2-4.2h82.7c2.6,0,4,1.3,4,4c0,2.9-1.3,4.4-4,4.4h-78.5v72.3v8.4v76.9
				c0,2.6-1.4,4-4.2,4C201.1,190.4,199.7,189.1,199.7,186.5z"/>
			<path d="M281.1,186.3V84.7c0-2.6,1.3-4,4-4c2.8,0,4.2,1.3,4.2,4V97c7-11.8,17.7-17.7,32.3-17.7h8.6c1.1,0,2,0.4,2.8,1.3
				c0.8,0.9,1.2,1.8,1.2,2.9c0,1.1-0.4,2-1.2,2.8c-0.8,0.8-1.7,1.2-2.8,1.2h-8.6c-8.7,0-16.2,3.1-22.7,9.3
				c-6.4,6.2-9.6,14.3-9.6,24.4v65.1c0,1.1-0.4,2.1-1.3,2.9c-0.9,0.9-1.8,1.3-2.9,1.3c-1.1,0-2-0.4-2.8-1.3
				C281.5,188.3,281.1,187.3,281.1,186.3z"/>
			<path d="M351.4,42.3c-1.5-1.5-2.2-3.2-2.2-5.2c0-2,0.7-3.7,2.2-5.1c1.5-1.4,3.2-2.1,5.2-2.1c2,0,3.7,0.7,5.1,2.1
				c1.4,1.4,2.1,3.1,2.1,5.1c0,2-0.7,3.8-2.1,5.2c-1.4,1.5-3.1,2.2-5.1,2.2C354.6,44.5,352.8,43.8,351.4,42.3z M352.6,186.3V84.7
				c0-1.1,0.4-2,1.2-2.8c0.8-0.8,1.7-1.2,2.8-1.2c2.8,0,4.2,1.3,4.2,4v101.6c0,1.1-0.4,2.1-1.3,2.9c-0.9,0.9-1.8,1.3-2.9,1.3
				c-1.1,0-2-0.4-2.8-1.3C353,188.3,352.6,187.3,352.6,186.3z"/>
			<path d="M388.2,149.5v-28.4c0-11.5,4.1-21.3,12.3-29.5c8.2-8.2,18-12.3,29.5-12.3c14.1,0,24.5,5.9,31.1,17.7V15.9
				c0-2.6,1.4-4,4.2-4c2.6,0,4,1.3,4,4v170.3c0,1.1-0.4,2.1-1.2,2.9c-0.8,0.9-1.7,1.3-2.8,1.3c-1.1,0-2.1-0.4-2.9-1.3
				c-0.9-0.8-1.3-1.8-1.3-2.9v-12.1c-2.6,5-6.9,9.1-12.7,12.5c-5.8,3.4-12.1,5.1-18.9,5.1c-11,0-20.6-4.3-28.9-12.8
				C392.3,170.5,388.2,160.7,388.2,149.5z M396.3,149.5c0,8.8,3.3,16.7,9.9,23.7c6.6,7,14.2,10.5,22.9,10.5c8.4,0,15.8-3.1,22.3-9.2
				c6.5-6.1,9.8-11.6,9.8-16.4v-36.9c0-10.1-3.2-18.2-9.6-24.4c-6.4-6.2-13.8-9.3-22.2-9.3c-8.8,0-16.5,3.4-23.1,10.3
				c-6.6,6.9-9.9,14.7-9.9,23.4L396.3,149.5L396.3,149.5z"/>
			<path d="M492.8,215.5c0-12.2,7-20.8,21.1-25.8c-9.5-2.6-14.2-8.1-14.2-16.5c0-7.1,3.8-12.5,11.4-16c-8.1-7.1-12.1-16.9-12.1-29.3
				v-10.5c0-11.3,3.4-20.5,10.3-27.5c6.9-7,15.9-10.6,27.1-10.6c11.3,0,20.5,3.7,27.7,11.2c2.2-4,4.9-7.4,8.1-10.1
				c3.3-2.7,6.4-4.1,9.3-4.1c3.3,0,4.9,1.6,4.9,4.6c0,1.4-0.4,2.5-1.3,3.3c-0.9,0.8-1.8,1.2-2.9,1.2c-5.6,0-10.2,3.6-13.9,10.7
				c3.9,5.4,5.8,12.5,5.8,21.4v10.5c0,11.2-3.5,20.4-10.6,27.7c-7.1,7.3-16.2,10.9-27.3,10.9c-7.1,0-13.5-1.6-19.1-4.9
				c-6.2,2.8-9.3,6.5-9.3,11.2c0,3.5,1.8,6.2,5.5,8c3.7,1.9,8.2,3.1,13.7,3.8c5.5,0.6,11.3,1.3,17.7,2c6.3,0.7,12.2,1.8,17.6,3.2
				s9.9,4.2,13.6,8.3c3.6,4.1,5.5,9.5,5.5,16.1c0,9.9-3.9,17.6-11.6,23.1c-7.7,5.5-18.4,8.2-31.8,8.2c-13.6,0-24.6-2.7-32.8-8.1
				C496.9,232,492.8,224.7,492.8,215.5z M500.9,214.8c0,7,3.3,12.6,9.9,16.8c6.6,4.3,15.6,6.4,27.1,6.4c11.3,0,20-2.1,26.1-6.4
				c6.1-4.3,9.2-10,9.2-17.3c0-3.6-0.9-6.6-2.7-9.2c-1.8-2.6-3.9-4.5-6.4-5.9c-2.5-1.4-5.6-2.6-9.4-3.5c-3.8-0.9-7.2-1.5-10.2-1.8
				c-3-0.3-6.5-0.6-10.6-0.9c-4-0.3-6.9-0.7-8.6-1C509,196.7,500.9,204.3,500.9,214.8z M507.2,127.7c0,9,2.6,16.3,7.9,22.1
				c5.3,5.7,12.5,8.6,21.6,8.6c8.8,0,15.9-2.9,21.3-8.6c5.3-5.7,8-13,8-21.8v-10.5c0-8.7-2.6-15.8-7.9-21.5
				c-5.3-5.7-12.5-8.5-21.6-8.5c-9,0-16.1,2.8-21.4,8.5c-5.3,5.7-7.9,12.8-7.9,21.5L507.2,127.7L507.2,127.7z"/>
			<path d="M600.8,149.5v-29c0-11.2,4.1-20.8,12.2-28.9c8.1-8.1,17.9-12.2,29.2-12.2c11.2,0,20.8,4,28.9,12
				c8.1,8,12.2,17.9,12.2,29.9c0,4-0.5,7.3-1.4,9.8c-0.9,2.5-2.5,4.3-4.6,5.3c-2.2,1.1-4.1,1.7-5.9,2c-1.8,0.2-4.2,0.3-7.3,0.3H609
				v10.9c0,10.4,3.6,18.7,10.9,24.9c7.3,6.2,16.7,9.3,28.4,9.3c5.7,0,10.5-0.8,14.4-2.4c3.9-1.6,6.8-3.2,8.7-4.8
				c1.9-1.5,3.4-2.3,4.3-2.3c1.1,0,2.1,0.5,2.9,1.4c0.8,0.9,1.3,1.9,1.3,2.8c0,1.6-1.2,3.4-3.7,5.5c-2.5,2.1-6.3,4-11.4,5.6
				c-5.1,1.6-10.8,2.4-17,2.4c-13.8,0-25.1-3.9-33.8-11.7C605.2,172.3,600.8,162.1,600.8,149.5z M609,130.5h52.3
				c5.7,0,9.5-0.5,11.3-1.6c1.8-1.1,2.7-3.4,2.7-7c0-8.8-3.1-16.8-9.3-23.8c-6.2-7-14.1-10.6-23.7-10.6c-9.3,0-17.2,3.3-23.6,9.9
				c-6.4,6.6-9.6,14.3-9.6,23.1L609,130.5L609,130.5z"/>
		</g>
		<line class="st8" x1="204.7" y1="83" x2="245.2" y2="83"/>
	</g>
</g>
<g id="White" class="st0">
	<g class="st1">
		<g>
			<g>
				<g>
					<defs>
						<rect id="SVGID_5_" x="8.3" y="11.5" width="123.9" height="208.2"/>
					</defs>
					<clipPath id="SVGID_6_">
						<use xlink:href="#SVGID_5_"  style="overflow:visible;"/>
					</clipPath>
					<path class="st9" d="M116.4,11.5h-94c-7.8,0-14.1,6.3-14.1,14.2v168.7c0,7.8,6.3,14.1,14.1,14.1h1.1h8.3h75.6h8.3h0.6
						c7.8,0,14.1-6.3,14.1-14.1V25.6C130.6,17.8,124.2,11.5,116.4,11.5L116.4,11.5z M22.5,19.8h94c3.2,0,5.8,2.6,5.8,5.8v58.8H16.6
						V25.6C16.6,22.4,19.3,19.8,22.5,19.8L22.5,19.8z M116.4,200.1h-94c-3.2,0-5.8-2.6-5.8-5.8V92.8h105.6v101.5
						C122.2,197.5,119.6,200.1,116.4,200.1L116.4,200.1z"/>
				</g>
			</g>
			<path class="st3" d="M27.6,108.1v22.6c0,5.4,8.3,5.4,8.3,0v-22.6C36,102.8,27.6,102.7,27.6,108.1L27.6,108.1z"/>
			<path class="st3" d="M36,71.3V48.7c0-5.3-8.3-5.4-8.3,0v22.6C27.6,76.6,36,76.6,36,71.3L36,71.3z"/>
		</g>
		<g>
			<path class="st3" d="M199.7,196.3V47.8c0-2.6,1.3-3.8,3.8-3.8h76c2.4,0,3.6,1.2,3.6,3.6c0,2.7-1.2,4.1-3.6,4.1h-72.1V118h34.1
				c2.4,0,3.6,1.4,3.6,4.1c0,2.4-1.2,3.6-3.6,3.6h-34.1v70.6c0,2.4-1.3,3.6-3.8,3.6C201,200,199.7,198.7,199.7,196.3z"/>
			<path class="st3" d="M274.4,196.1v-93.2c0-2.4,1.2-3.6,3.6-3.6c2.6,0,3.8,1.2,3.8,3.6v11.3c6.4-10.8,16.3-16.2,29.7-16.2h7.9
				c1,0,1.8,0.4,2.6,1.2c0.7,0.8,1.1,1.7,1.1,2.7c0,1-0.4,1.8-1.1,2.6c-0.7,0.7-1.6,1.1-2.6,1.1h-7.9c-8,0-14.9,2.8-20.8,8.5
				c-5.9,5.7-8.9,13.2-8.9,22.4v59.7c0,1-0.4,1.9-1.2,2.7c-0.8,0.8-1.7,1.2-2.7,1.2c-1,0-1.9-0.4-2.6-1.2
				C274.8,198,274.4,197.1,274.4,196.1z"/>
			<path class="st3" d="M339,63.9c-1.4-1.3-2-3-2-4.8c0-1.8,0.7-3.4,2-4.7c1.4-1.3,3-1.9,4.8-1.9c1.8,0,3.4,0.6,4.7,1.9
				s1.9,2.8,1.9,4.7c0,1.9-0.6,3.5-1.9,4.8c-1.3,1.4-2.8,2-4.7,2C341.9,66,340.3,65.3,339,63.9z M340.1,196.1v-93.2
				c0-1,0.4-1.8,1.1-2.6c0.7-0.7,1.6-1.1,2.6-1.1c2.6,0,3.8,1.2,3.8,3.6v93.2c0,1-0.4,1.9-1.2,2.7c-0.8,0.8-1.7,1.2-2.7,1.2
				c-1,0-1.9-0.4-2.6-1.2C340.5,198,340.1,197.1,340.1,196.1z"/>
			<path class="st3" d="M372.8,162.4v-26c0-10.5,3.8-19.6,11.3-27.1c7.5-7.5,16.6-11.3,27.1-11.3c12.9,0,22.5,5.4,28.6,16.2V39.7
				c0-2.4,1.3-3.6,3.8-3.6c2.4,0,3.6,1.2,3.6,3.6v156.4c0,1-0.4,1.9-1.1,2.7c-0.7,0.8-1.6,1.2-2.6,1.2c-1,0-1.9-0.4-2.7-1.2
				c-0.8-0.8-1.2-1.7-1.2-2.7V185c-2.4,4.6-6.3,8.4-11.6,11.5c-5.3,3.1-11.1,4.7-17.4,4.7c-10.1,0-19-3.9-26.6-11.7
				C376.6,181.7,372.8,172.6,372.8,162.4z M380.2,162.4c0,8.1,3,15.4,9.1,21.8c6,6.4,13,9.6,21,9.6c7.7,0,14.5-2.8,20.5-8.4
				c6-5.6,9-10.6,9-15v-33.9c0-9.2-3-16.7-8.9-22.4c-5.9-5.7-12.7-8.5-20.4-8.5c-8.1,0-15.2,3.2-21.2,9.5c-6,6.3-9.1,13.5-9.1,21.4
				L380.2,162.4L380.2,162.4z"/>
			<path class="st3" d="M468.8,223c0-11.2,6.5-19.1,19.4-23.7c-8.7-2.4-13-7.5-13-15.1c0-6.5,3.5-11.4,10.5-14.7
				c-7.4-6.5-11.1-15.5-11.1-26.9V133c0-10.4,3.2-18.8,9.5-25.3c6.3-6.5,14.6-9.7,24.9-9.7c10.4,0,18.8,3.4,25.4,10.2
				c2-3.7,4.5-6.8,7.5-9.3c3-2.5,5.8-3.7,8.5-3.7c3,0,4.5,1.4,4.5,4.3c0,1.3-0.4,2.3-1.2,3c-0.8,0.7-1.7,1.1-2.7,1.1
				c-5.1,0-9.4,3.3-12.8,9.8c3.6,5,5.3,11.5,5.3,19.6v9.6c0,10.2-3.2,18.7-9.7,25.4c-6.5,6.7-14.8,10-25.1,10
				c-6.5,0-12.4-1.5-17.5-4.5c-5.7,2.6-8.5,6-8.5,10.2c0,3.2,1.7,5.6,5,7.4c3.4,1.7,7.5,2.9,12.6,3.5c5,0.6,10.4,1.2,16.2,1.8
				c5.8,0.7,11.2,1.6,16.1,2.9s9.1,3.8,12.5,7.6c3.3,3.8,5,8.7,5,14.7c0,9.1-3.6,16.2-10.7,21.2c-7.1,5-16.9,7.6-29.2,7.6
				c-12.5,0-22.5-2.5-30.1-7.5C472.5,238.1,468.8,231.4,468.8,223z M476.2,222.4c0,6.4,3,11.6,9.1,15.5c6,3.9,14.3,5.9,24.9,5.9
				c10.4,0,18.4-2,24-5.9c5.6-3.9,8.4-9.2,8.4-15.9c0-3.3-0.8-6.1-2.5-8.4c-1.6-2.3-3.6-4.2-5.9-5.4c-2.3-1.3-5.2-2.3-8.6-3.2
				c-3.5-0.9-6.6-1.4-9.4-1.7c-2.8-0.3-6-0.6-9.7-0.9c-3.7-0.3-6.3-0.6-7.9-0.9C483.7,205.7,476.2,212.7,476.2,222.4z M482,142.3
				c0,8.3,2.4,15,7.3,20.3c4.8,5.3,11.4,7.9,19.8,7.9c8.1,0,14.6-2.6,19.5-7.9c4.9-5.3,7.4-11.9,7.4-20.1V133c0-8-2.4-14.5-7.3-19.7
				c-4.8-5.2-11.5-7.8-19.8-7.8c-8.3,0-14.8,2.6-19.6,7.8c-4.8,5.2-7.3,11.8-7.3,19.7L482,142.3L482,142.3z"/>
			<path class="st3" d="M568,162.4v-26.7c0-10.2,3.7-19.1,11.2-26.6c7.5-7.5,16.4-11.2,26.8-11.2c10.2,0,19.1,3.7,26.6,11
				c7.5,7.3,11.2,16.5,11.2,27.4c0,3.7-0.4,6.7-1.3,9c-0.9,2.3-2.3,3.9-4.3,4.9c-2,1-3.8,1.6-5.4,1.8c-1.6,0.2-3.9,0.3-6.7,0.3
				h-50.6v10c0,9.5,3.3,17.1,10,22.8c6.7,5.7,15.4,8.5,26,8.5c5.3,0,9.7-0.7,13.2-2.2c3.6-1.5,6.2-2.9,8-4.4
				c1.8-1.4,3.1-2.1,3.9-2.1c1,0,1.9,0.4,2.7,1.3c0.8,0.9,1.2,1.7,1.2,2.6c0,1.4-1.1,3.1-3.4,5c-2.3,1.9-5.8,3.6-10.5,5.1
				c-4.7,1.5-9.9,2.2-15.6,2.2c-12.7,0-23-3.6-31-10.8C572,183.3,568,173.9,568,162.4z M575.5,144.9h48c5.3,0,8.7-0.5,10.3-1.5
				c1.6-1,2.5-3.1,2.5-6.4c0-8.1-2.8-15.4-8.5-21.9c-5.7-6.5-12.9-9.7-21.8-9.7c-8.5,0-15.8,3-21.7,9.1c-5.9,6-8.9,13.1-8.9,21.2
				L575.5,144.9L575.5,144.9z"/>
		</g>
	</g>
</g>
<g id="Black" class="st0">
	<g class="st1">
		<g>
			<g>
				<g>
					<defs>
						<rect id="SVGID_7_" x="8.3" y="11.5" width="123.9" height="208.2"/>
					</defs>
					<clipPath id="SVGID_8_">
						<use xlink:href="#SVGID_7_"  style="overflow:visible;"/>
					</clipPath>
					<path class="st10" d="M116.4,11.5h-94c-7.8,0-14.1,6.3-14.1,14.2v168.7c0,7.8,6.3,14.1,14.1,14.1h1.1h8.3h75.6h8.3h0.6
						c7.8,0,14.1-6.3,14.1-14.1V25.6C130.6,17.8,124.2,11.5,116.4,11.5L116.4,11.5z M22.5,19.8h94c3.2,0,5.8,2.6,5.8,5.8v58.8H16.6
						V25.6C16.6,22.4,19.3,19.8,22.5,19.8L22.5,19.8z M116.4,200.1h-94c-3.2,0-5.8-2.6-5.8-5.8V92.8h105.6v101.5
						C122.2,197.5,119.6,200.1,116.4,200.1L116.4,200.1z"/>
				</g>
			</g>
			<path d="M27.6,108.1v22.6c0,5.4,8.3,5.4,8.3,0v-22.6C36,102.8,27.6,102.7,27.6,108.1L27.6,108.1z"/>
			<path d="M36,71.3V48.7c0-5.3-8.3-5.4-8.3,0v22.6C27.6,76.6,36,76.6,36,71.3L36,71.3z"/>
		</g>
		<g>
			<path d="M199.7,196.3V47.8c0-2.6,1.3-3.8,3.8-3.8h76c2.4,0,3.6,1.2,3.6,3.6c0,2.7-1.2,4.1-3.6,4.1h-72.1V118h34.1
				c2.4,0,3.6,1.4,3.6,4.1c0,2.4-1.2,3.6-3.6,3.6h-34.1v70.6c0,2.4-1.3,3.6-3.8,3.6C201,200,199.7,198.7,199.7,196.3z"/>
			<path d="M274.4,196.1v-93.2c0-2.4,1.2-3.6,3.6-3.6c2.6,0,3.8,1.2,3.8,3.6v11.3c6.4-10.8,16.3-16.2,29.7-16.2h7.9
				c1,0,1.8,0.4,2.6,1.2c0.7,0.8,1.1,1.7,1.1,2.7c0,1-0.4,1.8-1.1,2.6c-0.7,0.7-1.6,1.1-2.6,1.1h-7.9c-8,0-14.9,2.8-20.8,8.5
				c-5.9,5.7-8.9,13.2-8.9,22.4v59.7c0,1-0.4,1.9-1.2,2.7c-0.8,0.8-1.7,1.2-2.7,1.2c-1,0-1.9-0.4-2.6-1.2
				C274.8,198,274.4,197.1,274.4,196.1z"/>
			<path d="M339,63.9c-1.4-1.3-2-3-2-4.8c0-1.8,0.7-3.4,2-4.7c1.4-1.3,3-1.9,4.8-1.9c1.8,0,3.4,0.6,4.7,1.9s1.9,2.8,1.9,4.7
				c0,1.9-0.6,3.5-1.9,4.8c-1.3,1.4-2.8,2-4.7,2C341.9,66,340.3,65.3,339,63.9z M340.1,196.1v-93.2c0-1,0.4-1.8,1.1-2.6
				c0.7-0.7,1.6-1.1,2.6-1.1c2.6,0,3.8,1.2,3.8,3.6v93.2c0,1-0.4,1.9-1.2,2.7c-0.8,0.8-1.7,1.2-2.7,1.2c-1,0-1.9-0.4-2.6-1.2
				C340.5,198,340.1,197.1,340.1,196.1z"/>
			<path d="M372.8,162.4v-26c0-10.5,3.8-19.6,11.3-27.1c7.5-7.5,16.6-11.3,27.1-11.3c12.9,0,22.5,5.4,28.6,16.2V39.7
				c0-2.4,1.3-3.6,3.8-3.6c2.4,0,3.6,1.2,3.6,3.6v156.4c0,1-0.4,1.9-1.1,2.7c-0.7,0.8-1.6,1.2-2.6,1.2c-1,0-1.9-0.4-2.7-1.2
				c-0.8-0.8-1.2-1.7-1.2-2.7V185c-2.4,4.6-6.3,8.4-11.6,11.5c-5.3,3.1-11.1,4.7-17.4,4.7c-10.1,0-19-3.9-26.6-11.7
				C376.6,181.7,372.8,172.6,372.8,162.4z M380.2,162.4c0,8.1,3,15.4,9.1,21.8c6,6.4,13,9.6,21,9.6c7.7,0,14.5-2.8,20.5-8.4
				c6-5.6,9-10.6,9-15v-33.9c0-9.2-3-16.7-8.9-22.4c-5.9-5.7-12.7-8.5-20.4-8.5c-8.1,0-15.2,3.2-21.2,9.5c-6,6.3-9.1,13.5-9.1,21.4
				L380.2,162.4L380.2,162.4z"/>
			<path d="M468.8,223c0-11.2,6.5-19.1,19.4-23.7c-8.7-2.4-13-7.5-13-15.1c0-6.5,3.5-11.4,10.5-14.7c-7.4-6.5-11.1-15.5-11.1-26.9
				V133c0-10.4,3.2-18.8,9.5-25.3c6.3-6.5,14.6-9.7,24.9-9.7c10.4,0,18.8,3.4,25.4,10.2c2-3.7,4.5-6.8,7.5-9.3
				c3-2.5,5.8-3.7,8.5-3.7c3,0,4.5,1.4,4.5,4.3c0,1.3-0.4,2.3-1.2,3c-0.8,0.7-1.7,1.1-2.7,1.1c-5.1,0-9.4,3.3-12.8,9.8
				c3.6,5,5.3,11.5,5.3,19.6v9.6c0,10.2-3.2,18.7-9.7,25.4c-6.5,6.7-14.8,10-25.1,10c-6.5,0-12.4-1.5-17.5-4.5
				c-5.7,2.6-8.5,6-8.5,10.2c0,3.2,1.7,5.6,5,7.4c3.4,1.7,7.5,2.9,12.6,3.5c5,0.6,10.4,1.2,16.2,1.8c5.8,0.7,11.2,1.6,16.1,2.9
				s9.1,3.8,12.5,7.6c3.3,3.8,5,8.7,5,14.7c0,9.1-3.6,16.2-10.7,21.2c-7.1,5-16.9,7.6-29.2,7.6c-12.5,0-22.5-2.5-30.1-7.5
				C472.5,238.1,468.8,231.4,468.8,223z M476.2,222.4c0,6.4,3,11.6,9.1,15.5c6,3.9,14.3,5.9,24.9,5.9c10.4,0,18.4-2,24-5.9
				c5.6-3.9,8.4-9.2,8.4-15.9c0-3.3-0.8-6.1-2.5-8.4c-1.6-2.3-3.6-4.2-5.9-5.4c-2.3-1.3-5.2-2.3-8.6-3.2c-3.5-0.9-6.6-1.4-9.4-1.7
				c-2.8-0.3-6-0.6-9.7-0.9c-3.7-0.3-6.3-0.6-7.9-0.9C483.7,205.7,476.2,212.7,476.2,222.4z M482,142.3c0,8.3,2.4,15,7.3,20.3
				c4.8,5.3,11.4,7.9,19.8,7.9c8.1,0,14.6-2.6,19.5-7.9c4.9-5.3,7.4-11.9,7.4-20.1V133c0-8-2.4-14.5-7.3-19.7
				c-4.8-5.2-11.5-7.8-19.8-7.8c-8.3,0-14.8,2.6-19.6,7.8c-4.8,5.2-7.3,11.8-7.3,19.7L482,142.3L482,142.3z"/>
			<path d="M568,162.4v-26.7c0-10.2,3.7-19.1,11.2-26.6c7.5-7.5,16.4-11.2,26.8-11.2c10.2,0,19.1,3.7,26.6,11
				c7.5,7.3,11.2,16.5,11.2,27.4c0,3.7-0.4,6.7-1.3,9c-0.9,2.3-2.3,3.9-4.3,4.9c-2,1-3.8,1.6-5.4,1.8c-1.6,0.2-3.9,0.3-6.7,0.3
				h-50.6v10c0,9.5,3.3,17.1,10,22.8c6.7,5.7,15.4,8.5,26,8.5c5.3,0,9.7-0.7,13.2-2.2c3.6-1.5,6.2-2.9,8-4.4
				c1.8-1.4,3.1-2.1,3.9-2.1c1,0,1.9,0.4,2.7,1.3c0.8,0.9,1.2,1.7,1.2,2.6c0,1.4-1.1,3.1-3.4,5c-2.3,1.9-5.8,3.6-10.5,5.1
				c-4.7,1.5-9.9,2.2-15.6,2.2c-12.7,0-23-3.6-31-10.8C572,183.3,568,173.9,568,162.4z M575.5,144.9h48c5.3,0,8.7-0.5,10.3-1.5
				c1.6-1,2.5-3.1,2.5-6.4c0-8.1-2.8-15.4-8.5-21.9c-5.7-6.5-12.9-9.7-21.8-9.7c-8.5,0-15.8,3-21.7,9.1c-5.9,6-8.9,13.1-8.9,21.2
				L575.5,144.9L575.5,144.9z"/>
		</g>
	</g>
</g>
</svg>
